<svg id="Group_30671" data-name="Group 30671" xmlns="http://www.w3.org/2000/svg" width="24" height="24" viewBox="0 0 24 24">
  <path id="Path_17062" data-name="Path 17062" d="M-40.783,152.061c.178-.822.178-.822,1.068-1.087a3.307,3.307,0,0,1,.354-2.712.4.4,0,0,0,.023-.227,1.657,1.657,0,0,1,.869-1.667.373.373,0,0,0,.151-.227,2.03,2.03,0,0,1,2.422-1.69.294.294,0,0,0,.226-.057A2.807,2.807,0,0,1-32,143.834a1.658,1.658,0,0,1,1.592-.369,1.691,1.691,0,0,1,.839.556.4.4,0,0,0,.247.129,3.454,3.454,0,0,1,3.312,2.68.313.313,0,0,0,.172.179,1.659,1.659,0,0,1,1.1,2.061.358.358,0,0,0,0,.2A2.748,2.748,0,0,1-24.45,151c.73.186.775.234.966,1.064.221,0,.448,0,.676,0a.835.835,0,0,1,.913.776q.863,4.442,1.73,8.883a1.234,1.234,0,0,1-1.292,1.586q-4.059,0-8.118,0a.467.467,0,0,0-.387.162,2,2,0,0,1-1.116.537,4.561,4.561,0,0,1-2.509-.118,5.319,5.319,0,0,1-.818-.5.572.572,0,0,0-.276-.076q-4.071-.006-8.142,0a1.2,1.2,0,0,1-1.3-.981,3.537,3.537,0,0,1,.1-1.032q.815-4.233,1.647-8.463a.833.833,0,0,1,.918-.769C-41.237,152.059-41.015,152.061-40.783,152.061Zm9.056,8.6a14.033,14.033,0,0,1,8.82-.006.763.763,0,0,0,0-.1q-.354-2.133-.709-4.267t-.718-4.289c-.01-.061-.07-.153-.119-.161-.114-.02-.279-.045-.343.016a1,1,0,0,0-.24.424,3.7,3.7,0,0,1-.752,1.388c-.167.19-.323.39-.5.6.077.2.2.469.294.754a1.235,1.235,0,0,1-.534,1.426,1.194,1.194,0,0,1-1.492-.151,3.313,3.313,0,0,0-1.343-.812,2.213,2.213,0,0,1-1.576-1.435c-.241-.044-.465-.094-.692-.12a.4.4,0,0,0-.269.055,2.552,2.552,0,0,1-3.808-.65.269.269,0,0,0-.219-.094,3.174,3.174,0,0,1-3.189-1.195.528.528,0,0,0-.654-.218.279.279,0,0,0-.165.172c-.064.3-.1.609-.155.914q-.536,3.223-1.074,6.447c-.071.426-.139.852-.212,1.3a14.036,14.036,0,0,1,8.831,0v-.291q0-2.3,0-4.594a1.585,1.585,0,0,1,.013-.261.392.392,0,0,1,.394-.342.393.393,0,0,1,.395.341,1.549,1.549,0,0,1,.014.261q0,2.3,0,4.594Zm4.9-13.676A2.555,2.555,0,0,0-29.2,145c-.005.036-.009.074-.016.112a.393.393,0,0,1-.4.359.4.4,0,0,1-.4-.366c-.01-.055-.012-.11-.02-.165a.837.837,0,0,0-.842-.72.836.836,0,0,0-.839.724c-.01.071-.014.143-.03.212a.389.389,0,0,1-.414.316.381.381,0,0,1-.373-.362.9.9,0,0,1,.034-.375c.074-.188-.017-.248-.161-.319a1.987,1.987,0,0,0-2.67.958c-.052.115-.085.238-.134.354a.4.4,0,0,1-.478.255.407.407,0,0,1-.291-.479c.015-.085.044-.166.067-.251a1.152,1.152,0,0,0-1.308.945l.155.034a1.5,1.5,0,0,1,.938.6.5.5,0,0,1,.062.412.456.456,0,0,1-.336.24.66.66,0,0,1-.394-.21.86.86,0,0,0-1.023-.186.857.857,0,0,0-.447.938.916.916,0,0,0,.4.567.4.4,0,0,1,.113.564.4.4,0,0,1-.586.086c-.084-.055-.162-.119-.244-.179a2.418,2.418,0,0,0,.391,2.563,2.4,2.4,0,0,0,2.4.786l-.043-.371c-.079-.02-.148-.035-.216-.054a1.412,1.412,0,0,1-1.03-1.283c-.007-.287.133-.466.377-.48s.4.134.434.428a.577.577,0,0,0,.561.56,5.312,5.312,0,0,1,.251-.507.39.39,0,0,1,.693.024.621.621,0,0,1-.036.443,1.788,1.788,0,0,0-.159,1.246,1.664,1.664,0,0,0,1.225,1.269,1.66,1.66,0,0,0,1.7-.459.483.483,0,0,1,.547-.178,3.186,3.186,0,0,0,2.008.078.408.408,0,0,1,.531.265.41.41,0,0,1-.331.513c-.173.049-.351.084-.575.137a2.217,2.217,0,0,0,.315.317,3.056,3.056,0,0,0,.623.337,3.677,3.677,0,0,1,1.688,1.014.386.386,0,0,0,.5.062.386.386,0,0,0,.207-.463c-.074-.252-.189-.493-.281-.725-.281.073-.516.146-.756.191a.386.386,0,0,1-.444-.305.4.4,0,0,1,.255-.476,1.585,1.585,0,0,1,.208-.051,2.5,2.5,0,0,0,1.239-.663c.086-.084.162-.179.264-.292a.852.852,0,0,0-.118,0,2.525,2.525,0,0,1-2.114-.457.317.317,0,0,0-.232-.026,1.428,1.428,0,0,1-1.617-.7.393.393,0,0,1,.082-.517c.2-.183.449-.126.641.14a.61.61,0,0,0,.805.238.6.6,0,0,0,.269-.773c-.1-.285-.015-.5.222-.587s.434.034.545.317a1.4,1.4,0,0,1-.144,1.3,1.717,1.717,0,0,0,2.1-.107,1.651,1.651,0,0,0,.487-1.865l-.081.048c-.328.2-.562.195-.708-.03s-.059-.422.268-.649a.81.81,0,0,0,.373-.84.819.819,0,0,0-.63-.7.9.9,0,0,0-.743.148.4.4,0,0,1-.562-.123.393.393,0,0,1,.132-.559C-27.157,147.152-27,147.08-26.83,146.989Zm3.471,5.9c.028.168.053.322.078.475q.586,3.528,1.174,7.057a.823.823,0,0,1-1.111.995,13.584,13.584,0,0,0-4.858-.612c-.59.033-1.178.121-1.778.185l.125,1.494c.09,0,.16.011.229.011h8c.482,0,.625-.184.532-.657q-.659-3.369-1.314-6.739-.215-1.1-.434-2.209Zm-11.181,9.605.122-1.507c-.63-.064-1.234-.151-1.841-.184a13.647,13.647,0,0,0-4.833.623.809.809,0,0,1-1.083-.929c.187-1.173.39-2.344.586-3.516.227-1.358.452-2.717.681-4.091h-.644c-.02.088-.04.164-.055.241q-.843,4.337-1.686,8.675c-.1.528.024.687.562.687h8.192Zm.927-1.317c-.047.528-.078,1.009-.136,1.487a.322.322,0,0,0,.224.382,3.375,3.375,0,0,0,1.438.255,2.949,2.949,0,0,0,1.361-.273c.088-.046.2-.166.2-.246-.025-.52-.079-1.039-.128-1.608-.414.147-.8.276-1.181.424a.766.766,0,0,1-.595,0C-32.812,161.445-33.2,161.321-33.613,161.176Z" transform="translate(44.13 -140.122)" fill="#207bef"/>
  <path id="Path_17063" data-name="Path 17063" d="M77.644,97.917c.056.051.208.13.268.254.18.371.331.756.479,1.141a.4.4,0,0,1-.226.529.4.4,0,0,1-.53-.232c-.162-.371-.319-.744-.463-1.122C77.059,98.19,77.248,97.917,77.644,97.917Z" transform="translate(-69.441 -97.549)" fill="#207bef"/>
  <path id="Path_17064" data-name="Path 17064" d="M192.722,99.921c-.335,0-.549-.259-.459-.508.151-.418.324-.829.507-1.235a.4.4,0,0,1,.741.3c-.158.424-.332.844-.527,1.252C192.934,99.829,192.78,99.88,192.722,99.921Z" transform="translate(-177.238 -97.596)" fill="#207bef"/>
  <path id="Path_17065" data-name="Path 17065" d="M-9.008,184.549a1.371,1.371,0,0,1,.174.048c.353.144.706.288,1.056.44a.408.408,0,0,1,.263.536.409.409,0,0,1-.574.215c-.369-.146-.738-.294-1.1-.456a.378.378,0,0,1-.23-.47A.4.4,0,0,1-9.008,184.549Z" transform="translate(11.651 -178.681)" fill="#207bef"/>
  <path id="Path_17066" data-name="Path 17066" d="M268.807,185.871a.481.481,0,0,1-.409-.339.357.357,0,0,1,.179-.451c.411-.188.831-.358,1.255-.516a.352.352,0,0,1,.443.19.33.33,0,0,1-.07.473C269.753,185.466,269.275,185.659,268.807,185.871Z" transform="translate(-248.559 -178.673)" fill="#207bef"/>
  <path id="Path_17067" data-name="Path 17067" d="M242.582,136.972a.878.878,0,0,1-.1.266,4.77,4.77,0,0,1-.557.552.352.352,0,0,1-.5-.064.368.368,0,0,1-.031-.52,2.489,2.489,0,0,1,.509-.5.513.513,0,0,1,.416-.026C242.438,136.726,242.506,136.879,242.582,136.972Z" transform="translate(-223.19 -133.808)" fill="#207bef"/>
  <path id="Path_17068" data-name="Path 17068" d="M29.507,135.561a1.267,1.267,0,0,1,.3.135,4.99,4.99,0,0,1,.474.473.388.388,0,0,1-.025.542.4.4,0,0,1-.543.027,2.607,2.607,0,0,1-.466-.478.52.52,0,0,1-.05-.416C29.239,135.726,29.4,135.653,29.507,135.561Z" transform="translate(-24.518 -132.788)" fill="#207bef"/>
  <path id="Path_17069" data-name="Path 17069" d="M139.123,92.773c0,.408-.131.605-.4.611s-.42-.2-.42-.619.131-.606.4-.612S139.123,92.353,139.123,92.773Z" transform="translate(-126.717 -92.153)" fill="#207bef"/>
  <path id="Path_17070" data-name="Path 17070" d="M122.877,222.563a2.514,2.514,0,0,1-1.24-.691.419.419,0,0,1-.048-.63.424.424,0,0,1,.615.042,1.644,1.644,0,0,0,2.8-.79c.079-.28.261-.409.5-.355a.41.41,0,0,1,.288.541,2.4,2.4,0,0,1-1.8,1.852.413.413,0,0,0-.291.233,1.96,1.96,0,0,1-1.735,1.12.411.411,0,1,1-.058-.812A1.252,1.252,0,0,0,122.877,222.563Z" transform="translate(-110.965 -212.003)" fill="#207bef"/>
  <path id="Path_17071" data-name="Path 17071" d="M96.654,194.69c.278,0,.449.134.465.371a.41.41,0,0,1-.425.444,1.045,1.045,0,0,0-1.033.993c0,.04-.008.08-.015.119a.4.4,0,0,1-.437.352.41.41,0,0,1-.371-.425A1.881,1.881,0,0,1,96.654,194.69Z" transform="translate(-86.017 -188.179)" fill="#207bef"/>
</svg>
