<svg id="Group_30670" data-name="Group 30670" xmlns="http://www.w3.org/2000/svg" width="24" height="25" viewBox="0 0 24 25">
  <path id="Path_17048" data-name="Path 17048" d="M-39.541,101.093c-.942-.57-1.882-1.143-2.826-1.71q-3.945-2.367-7.892-4.729c-.385-.23-.421-.379-.187-.769q1.654-2.752,3.3-5.505a.88.88,0,0,0,.119-.429q.01-5.64.005-11.28c0-.488.09-.577.586-.577h12.01a1.284,1.284,0,0,1,.291.015.34.34,0,0,1,.283.372.34.34,0,0,1-.32.341,2.157,2.157,0,0,1-.268.007H-46.264v10.1l2.523-4.194c-.3,0-.558,0-.814,0-.374,0-.5-.124-.5-.5q0-1.84,0-3.679c0-.368.13-.5.5-.5,1.123,0,2.246,0,3.369,0a.363.363,0,0,0,.375-.188c.138-.235.331-.261.587-.11.545.322,1.083.655,1.632.97a.866.866,0,0,0,.408.112c1.709.007,3.417,0,5.126,0,.4,0,.575.114.575.368s-.186.372-.575.372h-4.023l-.019.044c.439.262.877.526,1.32.782.049.029.128.009.192.009.879,0,1.758,0,2.636,0a.415.415,0,0,1,.431.21.367.367,0,0,1-.371.523c-.527.008-1.054,0-1.6.041l3.221,1.933v-6.3c-.38,0-.76,0-1.14,0-.305,0-.465-.136-.458-.378.006-.227.168-.355.459-.356q.708,0,1.416,0c.356,0,.48.127.48.488q0,3.387,0,6.773a.357.357,0,0,0,.209.357c1.132.669,2.257,1.348,3.384,2.025.373.224.411.375.186.749q-1.83,3.043-3.657,6.088a.85.85,0,0,0-.113.406c-.011.755,0,1.511-.006,2.266,0,.357-.127.483-.484.485s-.716.009-1.074,0a.336.336,0,0,0-.345.19c-.746,1.254-1.5,2.5-2.249,3.756a.745.745,0,0,1-.5.377c-1.372.329-2.742.669-4.112,1.006-.01,0-.016.024-.024.037Zm4.337-1.954,7.74-12.869-12.893-7.725L-49.72,94.114l10.18,6.1c.053-.082.1-.148.14-.216l1.216-2.021c.218-.361.372-.4.733-.184ZM-44.3,82c.287,0,.555-.009.822,0a.278.278,0,0,0,.286-.165c.566-.954,1.141-1.9,1.711-2.854.03-.05.052-.1.08-.163h-2.9ZM-36.036,99.5l-1.621-.972-.972,1.618Zm4.194-4.517h.58v-.972Z" transform="translate(50.593 -76.093)" fill="#207bef"/>
  <path id="Path_17049" data-name="Path 17049" d="M13.989,323.318a1.785,1.785,0,0,1,.226.1q5.092,3.053,10.181,6.11c.268.161.345.37.223.572s-.342.236-.61.076L13.827,324.07c-.184-.111-.325-.248-.26-.482A.373.373,0,0,1,13.989,323.318Z" transform="translate(-9.702 -308.473)" fill="#207bef"/>
  <path id="Path_17050" data-name="Path 17050" d="M91.023,219.184c-.012.338-.242.509-.476.441a1.174,1.174,0,0,1-.267-.128q-5.018-3.01-10.034-6.023l-.064-.039c-.281-.173-.361-.38-.228-.589s.34-.225.614-.062q2,1.2,3.992,2.4,3.074,1.845,6.145,3.7A1.681,1.681,0,0,1,91.023,219.184Z" transform="translate(-72.063 -204.417)" fill="#207bef"/>
  <path id="Path_17051" data-name="Path 17051" d="M111.263,269a.37.37,0,0,1-.493.338,1.077,1.077,0,0,1-.221-.114q-3.832-2.3-7.661-4.6c-.1-.058-.223-.127-.256-.219a.473.473,0,0,1,.014-.386.621.621,0,0,1,.382-.152c.075-.01.167.063.244.11l7.684,4.613C111.119,268.68,111.269,268.778,111.263,269Z" transform="translate(-93.347 -252.477)" fill="#207bef"/>
  <path id="Path_17052" data-name="Path 17052" d="M98.264,336.423c.008.326-.211.509-.449.451a1,1,0,0,1-.269-.124q-3.136-1.881-6.27-3.764c-.021-.013-.043-.024-.064-.038-.255-.162-.328-.354-.211-.555s.343-.246.606-.088q2.486,1.489,4.97,2.981c.476.286.957.565,1.426.863A1.335,1.335,0,0,1,98.264,336.423Z" transform="translate(-82.376 -316.663)" fill="#207bef"/>
  <path id="Path_17053" data-name="Path 17053" d="M47.107,267.189a3.792,3.792,0,0,1,.348.158q3.011,1.805,6.021,3.613c.176.106.334.238.26.452a.589.589,0,0,1-.3.286.393.393,0,0,1-.3-.063q-3.057-1.826-6.108-3.661c-.183-.11-.305-.265-.219-.471C46.866,267.379,47.008,267.291,47.107,267.189Z" transform="translate(-40.885 -255.588)" fill="#207bef"/>
  <path id="Path_17054" data-name="Path 17054" d="M175.737,232.283c0,.336-.247.525-.484.45a1.191,1.191,0,0,1-.242-.125q-2.786-1.67-5.57-3.344c-.085-.051-.206-.1-.232-.177a.587.587,0,0,1-.027-.426c.062-.1.254-.134.4-.16.065-.012.15.058.221.1q2.818,1.69,5.632,3.386A1.64,1.64,0,0,1,175.737,232.283Z" transform="translate(-155.825 -219.244)" fill="#207bef"/>
  <path id="Path_17055" data-name="Path 17055" d="M1.769,353.625c0,.354-.256.53-.506.434a1.281,1.281,0,0,1-.2-.107q-1.933-1.158-3.864-2.318a1.064,1.064,0,0,1-.221-.16.339.339,0,0,1-.043-.455.341.341,0,0,1,.433-.148.818.818,0,0,1,.134.063c1.338.8,2.678,1.6,4.011,2.412A1.128,1.128,0,0,1,1.769,353.625Z" transform="translate(6.097 -334.136)" fill="#207bef"/>
  <path id="Path_17056" data-name="Path 17056" d="M221.894,214.2a3.481,3.481,0,0,1,.327.147q1.817,1.086,3.63,2.177c.254.153.329.358.216.556s-.346.243-.608.086q-1.817-1.085-3.632-2.175c-.186-.112-.329-.266-.231-.488C221.651,214.385,221.794,214.3,221.894,214.2Z" transform="translate(-205.09 -205.803)" fill="#207bef"/>
  <path id="Path_17057" data-name="Path 17057" d="M101.086,187.477c0,.364-.237.541-.491.451a1.135,1.135,0,0,1-.2-.1q-1.419-.85-2.836-1.7c-.085-.051-.206-.1-.231-.178a.587.587,0,0,1-.019-.426c.064-.1.256-.126.4-.154.058-.012.136.051.2.089.968.579,1.937,1.155,2.9,1.743A1.394,1.394,0,0,1,101.086,187.477Z" transform="translate(-88.275 -178.712)" fill="#207bef"/>
  <path id="Path_17058" data-name="Path 17058" d="M158.665,177c-.023.34-.276.509-.511.426a1.119,1.119,0,0,1-.2-.105q-1.247-.747-2.493-1.5a1.158,1.158,0,0,1-.2-.143.343.343,0,0,1-.068-.452.354.354,0,0,1,.45-.163.866.866,0,0,1,.177.089c.852.511,1.707,1.019,2.553,1.541A1.453,1.453,0,0,1,158.665,177Z" transform="translate(-142.606 -169.016)" fill="#207bef"/>
  <path id="Path_17059" data-name="Path 17059" d="M172.458,343.1c0,.335-.235.515-.463.452a.65.65,0,0,1-.158-.071q-1.325-.793-2.648-1.589c-.056-.034-.136-.073-.15-.124a.645.645,0,0,1-.038-.389.529.529,0,0,1,.328-.205.436.436,0,0,1,.274.089c.863.513,1.726,1.027,2.582,1.554A1.323,1.323,0,0,1,172.458,343.1Z" transform="translate(-155.606 -325.029)" fill="#207bef"/>
  <path id="Path_17060" data-name="Path 17060" d="M88.588,405.8c0,.339-.236.516-.479.44a.955.955,0,0,1-.2-.1q-1.1-.657-2.2-1.316c-.028-.017-.057-.034-.084-.053a.377.377,0,1,1,.382-.648c.2.11.4.235.6.355.576.346,1.155.686,1.724,1.043A1.252,1.252,0,0,1,88.588,405.8Z" transform="translate(-77.133 -384.178)" fill="#207bef"/>
  <path id="Path_17061" data-name="Path 17061" d="M33.337,297.31c-.006.337-.247.512-.487.43a1.061,1.061,0,0,1-.2-.1l-2.175-1.307a1.381,1.381,0,0,1-.127-.079.374.374,0,0,1-.126-.5.36.36,0,0,1,.518-.132q1.212.712,2.409,1.448C33.251,297.125,33.3,297.262,33.337,297.31Z" transform="translate(-25.252 -282.194)" fill="#207bef"/>
</svg>
