<svg xmlns="http://www.w3.org/2000/svg" width="25.197" height="11.759" viewBox="0 0 25.197 11.759">
  <g id="Group_5991" data-name="Group 5991" transform="translate(-293 -103)">
    <path id="Icon_material-people" data-name="Icon material-people" d="M14.1,12.539a2.52,2.52,0,1,0-2.52-2.52A2.509,2.509,0,0,0,14.1,12.539Zm-6.719,0a2.52,2.52,0,1,0-2.52-2.52A2.509,2.509,0,0,0,7.379,12.539Zm0,1.68c-1.957,0-5.879.983-5.879,2.94v2.1H13.259v-2.1C13.259,15.2,9.336,14.219,7.379,14.219Zm6.719,0c-.244,0-.521.017-.815.042a3.544,3.544,0,0,1,1.655,2.9v2.1h5.039v-2.1C19.978,15.2,16.056,14.219,14.1,14.219Z" transform="translate(298.219 95.5)" fill="#303031"/>
    <path id="Icon_material-people-2" data-name="Icon material-people" d="M7.379,12.539A2.52,2.52,0,1,1,9.9,10.02,2.509,2.509,0,0,1,7.379,12.539Zm0,1.68c.244,0,.521.017.815.042a3.544,3.544,0,0,0-1.655,2.9v2.1H1.5v-2.1C1.5,15.2,5.422,14.219,7.379,14.219Z" transform="translate(291.5 95.5)" fill="#303031"/>
  </g>
</svg>
