<svg id="Group_30669" data-name="Group 30669" xmlns="http://www.w3.org/2000/svg" width="25" height="24" viewBox="0 0 25 24">
  <path id="Path_17044" data-name="Path 17044" d="M173.545,175.814a.929.929,0,0,0-.064.168,2.948,2.948,0,0,1-.922,1.679c-.644.6-1.317,1.165-1.943,1.781a9.654,9.654,0,0,0-.934,1.15,1.621,1.621,0,0,0-.22.511c-.112.383-.085.432.242.652a1.2,1.2,0,0,1,.556,1.03c.01.586.013,1.172,0,1.758a1.222,1.222,0,0,1-1.267,1.235q-2.772,0-5.543,0a1.2,1.2,0,0,1-1.256-1.191c-.024-.618-.02-1.237,0-1.855a1.208,1.208,0,0,1,.824-1.121c.025-.727.022-1.452.082-2.172a5.084,5.084,0,0,1,1.359-3.31,5.416,5.416,0,0,1,2.4-1.282.637.637,0,0,0,.326-.246c.4-.629.794-1.266,1.18-1.906a1.843,1.843,0,0,1,.967-.815.306.306,0,0,0,.149-.224c.106-1.257.2-2.514.3-3.771a1.683,1.683,0,0,1,1.639-1.592,1.656,1.656,0,0,1,1.643,1.58c.137,1.907.259,3.815.392,5.723.018.252.061.5.092.754Zm-9.529,5.723h4.407a2.786,2.786,0,0,1,.57-1.687,13.334,13.334,0,0,1,1.209-1.366c.532-.525,1.112-1,1.662-1.509a1.972,1.972,0,0,0,.673-1.34,7.455,7.455,0,0,0,.009-.95c-.066-1.1-.146-2.208-.222-3.312-.078-1.144-.152-2.289-.24-3.433a.663.663,0,1,0-1.325,0q-.161,1.909-.3,3.82a.258.258,0,0,0,.116.2,1.7,1.7,0,0,1,.669,2.509q-.961,1.569-1.93,3.132c-.043.069-.076.166-.139.2-.146.069-.326.171-.458.135a.589.589,0,0,1-.349-.346.669.669,0,0,1,.105-.47c.633-1.05,1.283-2.09,1.922-3.137a1.117,1.117,0,0,0,.161-.4.686.686,0,0,0-.456-.749.7.7,0,0,0-.85.294c-.374.59-.758,1.175-1.094,1.787a1.9,1.9,0,0,1-1.284.974,3.436,3.436,0,0,0-2.678,2.782A14.187,14.187,0,0,0,164.016,181.538Zm2.2,3.265H168.9c.311,0,.384-.073.385-.389q0-.757,0-1.514c0-.288-.077-.37-.356-.37q-2.71,0-5.421,0c-.272,0-.344.077-.346.354q0,.781,0,1.563c0,.285.077.356.366.356Z" transform="translate(-148.545 -161.781)" fill="#207bef"/>
  <path id="Path_17045" data-name="Path 17045" d="M-47.25,174.743c.031-.035.065-.067.092-.1a.466.466,0,0,1,.561-.179.457.457,0,0,1,.325.466c0,.155,0,.309,0,.464a2.122,2.122,0,0,0,.677,1.568c.545.5,1.113.978,1.645,1.492a12.561,12.561,0,0,1,1.123,1.217,3.019,3.019,0,0,1,.7,1.873h4.4c0-.36.024-.732-.005-1.1a15.08,15.08,0,0,0-.216-1.909,3.357,3.357,0,0,0-2.465-2.607.293.293,0,0,0-.047-.012,1.976,1.976,0,0,1-1.521-1.186c-.289-.553-.645-1.071-.978-1.6a.683.683,0,0,0-.732-.33.67.67,0,0,0-.555.489.773.773,0,0,0,.12.671q.976,1.574,1.941,3.154a.811.811,0,0,1,.134.382.443.443,0,0,1-.324.44.459.459,0,0,1-.527-.146,1.447,1.447,0,0,1-.148-.223c-.627-1.016-1.232-2.046-1.884-3.046a1.722,1.722,0,0,1,.668-2.565.226.226,0,0,0,.1-.183c-.093-1.274-.189-2.548-.3-3.82a.691.691,0,0,0-.649-.673.693.693,0,0,0-.679.692c-.069.835-.122,1.672-.181,2.507-.025.356-.221.569-.513.555s-.487-.262-.462-.624c.058-.852.115-1.7.183-2.556a1.663,1.663,0,0,1,1.62-1.552,1.676,1.676,0,0,1,1.656,1.545q.16,1.9.294,3.8a.257.257,0,0,0,.2.273,1.639,1.639,0,0,1,.9.748c.4.658.8,1.317,1.218,1.968a.56.56,0,0,0,.29.217,5.519,5.519,0,0,1,2.373,1.238,4.688,4.688,0,0,1,1.354,2.927c.1.854.107,1.719.156,2.614a1.326,1.326,0,0,1,.817,1.457c-.021.471,0,.944-.005,1.416a1.227,1.227,0,0,1-1.314,1.288q-2.723,0-5.445,0a1.235,1.235,0,0,1-1.318-1.31c0-.537,0-1.074,0-1.612a1.257,1.257,0,0,1,.726-1.2.3.3,0,0,0,.123-.239,2.1,2.1,0,0,0-.416-1.077,9.874,9.874,0,0,0-1.7-1.739c-.335-.3-.665-.6-.993-.9a3.028,3.028,0,0,1-.966-1.762.505.505,0,0,0-.055-.12Zm7.318,10.063h2.686c.309,0,.379-.066.38-.367q0-.769,0-1.538c0-.294-.071-.368-.357-.368q-2.7,0-5.4,0c-.3,0-.368.076-.369.382q0,.745,0,1.49c0,.335.067.4.4.4Z" transform="translate(47.25 -161.784)" fill="#207bef"/>
  <path id="Path_17046" data-name="Path 17046" d="M40.256,106.352c-.623,0-1.289,0-1.956,0-.436,0-.6-.169-.611-.6a5.19,5.19,0,0,1,.511-2.7,4.607,4.607,0,0,1,1.487-1.641,3.037,3.037,0,0,1-.541-2.651,2.991,2.991,0,0,1,1.242-1.752,3.078,3.078,0,0,1,4.274.842,3.038,3.038,0,0,1,2.313-1.357,2.935,2.935,0,0,1,2.155.673,3.05,3.05,0,0,1,.493,4.238c.088.066.178.131.264.2a4.405,4.405,0,0,1,1.73,3.528c0,.228.007.456,0,.684a.5.5,0,0,1-.555.536c-.61,0-1.22,0-1.83,0h-.18c0,.534,0,1.045,0,1.557a.48.48,0,0,1-.538.545q-3.856,0-7.712,0a.48.48,0,0,1-.543-.539C40.253,107.4,40.256,106.892,40.256,106.352Zm7.82,1.117a3.43,3.43,0,0,0-1.63-3.175.318.318,0,0,0-.27-.013,3.044,3.044,0,0,1-3.047,0,.285.285,0,0,0-.25.007,5.091,5.091,0,0,0-.732.6,3.349,3.349,0,0,0-.906,2.586Zm-1.357-5.8a2.066,2.066,0,1,0-2.11,2.042A2.071,2.071,0,0,0,46.719,101.666Zm-2.767-3.012a2.033,2.033,0,0,0-2.327-1.143,2.091,2.091,0,0,0-1.6,2.135,2.017,2.017,0,0,0,1.572,1.864A3.1,3.1,0,0,1,43.952,98.654Zm3.759,2.863a2.039,2.039,0,0,0,1.575-2.006,2.088,2.088,0,0,0-1.833-2.041,2.007,2.007,0,0,0-2.087,1.187A3.109,3.109,0,0,1,47.711,101.517Zm-5.526,1.942c-.118-.233-.252-.51-.4-.78a.335.335,0,0,0-.167-.136c-.347-.13-.7-.257-1.05-.369a.373.373,0,0,0-.274.017,3.354,3.354,0,0,0-1.411,1.719,3.7,3.7,0,0,0-.213,1.465c.52,0,1.017-.021,1.511.007.326.019.56-.04.668-.38a.773.773,0,0,1,.166-.268C41.4,104.309,41.79,103.889,42.185,103.459Zm8.456,1.916A3.458,3.458,0,0,0,49,102.182a.339.339,0,0,0-.253-.013c-.36.116-.715.244-1.07.376a.3.3,0,0,0-.15.124c-.148.277-.285.559-.435.859-.009-.022-.008-.012,0-.007a4.734,4.734,0,0,1,1.528,1.766.2.2,0,0,0,.149.086C49.378,105.377,49.994,105.375,50.64,105.375Z" transform="translate(-32.153 -96.48)" fill="#207bef"/>
  <path id="Path_17047" data-name="Path 17047" d="M-44.45,257.628a.477.477,0,0,1,.479.478.5.5,0,0,1-.493.5.5.5,0,0,1-.482-.486A.483.483,0,0,1-44.45,257.628Z" transform="translate(45.096 -247.149)" fill="#207bef"/>
</svg>
