<svg xmlns="http://www.w3.org/2000/svg" width="490.865" height="451.133" viewBox="0 0 490.865 451.133">
  <g id="Group_31546" data-name="Group 31546" transform="translate(-13.609 -27.487)">
    <g id="Background_Complete" data-name="Background Complete" transform="translate(56.497 27.487)">
      <g id="Group_31204" data-name="Group 31204" transform="translate(110.618 25.919)">
        <g id="Group_31203" data-name="Group 31203">
          <rect id="Rectangle_2856" data-name="Rectangle 2856" width="203.91" height="150.973" transform="matrix(0.178, -0.984, 0.984, 0.178, 0.265, 200.973)" fill="#fafafa"/>
          <g id="Group_31202" data-name="Group 31202">
            <path id="Path_17556" data-name="Path 17556" d="M309.658,280.214s.05-.332.161-.966.277-1.58.494-2.816c.443-2.484,1.1-6.152,1.948-10.923l7.383-41.163c6.36-35.3,15.394-85.44,26.093-144.826l.2.294L197.394,52.947l-.017,0,.324-.224c-13.57,74.845-26.14,144.182-36.376,200.639l-.185-.265,107.945,19.663,29.983,5.487,7.879,1.453c1.782.331,2.71.516,2.71.516s-.9-.147-2.671-.459l-7.846-1.394L269.187,273,161.059,253.543l-.224-.041.041-.225c10.208-56.462,22.745-125.805,36.276-200.656l.05-.275.274.05.017,0L346.029,79.316l.249.046-.045.248c-10.813,59.434-19.942,109.614-26.369,144.943l-7.506,41.082c-.873,4.745-1.543,8.393-2,10.863q-.343,1.833-.519,2.784C309.723,279.905,309.658,280.214,309.658,280.214Z" transform="translate(-160.835 -52.345)" fill="#e0e0e0"/>
          </g>
        </g>
        <rect id="Rectangle_2857" data-name="Rectangle 2857" width="64.098" height="55.85" transform="translate(49.13 21.531) rotate(10.262)" fill="#e0e0e0"/>
        <rect id="Rectangle_2858" data-name="Rectangle 2858" width="41.042" height="7.286" transform="translate(122.134 34.748) rotate(10.262)" fill="#e0e0e0"/>
        <rect id="Rectangle_2859" data-name="Rectangle 2859" width="117.13" height="7.286" transform="translate(37.947 87.82) rotate(10.262)" fill="#e0e0e0"/>
        <rect id="Rectangle_2860" data-name="Rectangle 2860" width="117.13" height="7.286" transform="matrix(0.984, 0.178, -0.178, 0.984, 35.662, 100.441)" fill="#e0e0e0"/>
        <rect id="Rectangle_2861" data-name="Rectangle 2861" width="117.13" height="7.286" transform="translate(33.378 113.062) rotate(10.262)" fill="#e0e0e0"/>
        <rect id="Rectangle_2862" data-name="Rectangle 2862" width="117.13" height="7.286" transform="matrix(0.984, 0.178, -0.178, 0.984, 31.093, 125.683)" fill="#e0e0e0"/>
        <rect id="Rectangle_2863" data-name="Rectangle 2863" width="117.13" height="7.286" transform="translate(28.808 138.304) rotate(10.262)" fill="#e0e0e0"/>
        <rect id="Rectangle_2864" data-name="Rectangle 2864" width="117.13" height="7.286" transform="matrix(0.984, 0.178, -0.178, 0.984, 20.975, 181.568)" fill="#e0e0e0"/>
        <rect id="Rectangle_2865" data-name="Rectangle 2865" width="64.297" height="7.286" transform="translate(26.523 150.925) rotate(10.262)" fill="#e0e0e0"/>
        <rect id="Rectangle_2866" data-name="Rectangle 2866" width="41.042" height="7.286" transform="translate(120.033 46.352) rotate(10.262)" fill="#e0e0e0"/>
        <rect id="Rectangle_2867" data-name="Rectangle 2867" width="41.042" height="7.286" transform="translate(117.932 57.956) rotate(10.262)" fill="#e0e0e0"/>
        <rect id="Rectangle_2868" data-name="Rectangle 2868" width="25.306" height="7.286" transform="translate(115.831 69.56) rotate(10.262)" fill="#e0e0e0"/>
      </g>
      <g id="Group_31210" data-name="Group 31210">
        <g id="Group_31205" data-name="Group 31205">
          <path id="Path_17557" data-name="Path 17557" d="M54.743,33.454,59.479,88.7,80.9,94.506l41.553-4.834-5.851-62.185Z" transform="translate(-54.743 -27.487)" fill="#f5f5f5"/>
          <path id="Path_17558" data-name="Path 17558" d="M65.816,81.426,59.285,86.4a23.864,23.864,0,0,0,8.523,4.732,34.423,34.423,0,0,0,12.9,1.076S70.811,90.488,65.816,81.426Z" transform="translate(-54.549 -25.186)" fill="#ebebeb"/>
        </g>
        <g id="Group_31206" data-name="Group 31206" transform="translate(9.835 20.304)">
          <path id="Path_17559" data-name="Path 17559" d="M111.206,46.967c.009.1-10.512,1.207-23.5,2.466s-23.524,2.2-23.534,2.095,10.508-1.206,23.5-2.466S111.2,46.865,111.206,46.967Z" transform="translate(-64.175 -46.96)" fill="#e0e0e0"/>
        </g>
        <g id="Group_31207" data-name="Group 31207" transform="translate(10.449 28.806)">
          <path id="Path_17560" data-name="Path 17560" d="M111.8,55.122c.01.1-10.511,1.206-23.5,2.465s-23.524,2.2-23.535,2.095,10.509-1.206,23.5-2.466S111.786,55.019,111.8,55.122Z" transform="translate(-64.764 -55.115)" fill="#e0e0e0"/>
        </g>
        <g id="Group_31208" data-name="Group 31208" transform="translate(11.441 36.3)">
          <path id="Path_17561" data-name="Path 17561" d="M112.747,62.309c.009.1-10.511,1.206-23.5,2.465s-23.526,2.2-23.535,2.095,10.509-1.206,23.5-2.466S112.737,62.206,112.747,62.309Z" transform="translate(-65.716 -62.302)" fill="#e0e0e0"/>
        </g>
        <g id="Group_31209" data-name="Group 31209" transform="translate(12.093 43.544)">
          <path id="Path_17562" data-name="Path 17562" d="M113.372,69.257c.01.1-10.511,1.206-23.5,2.465s-23.524,2.2-23.535,2.095,10.509-1.206,23.5-2.466S113.363,69.154,113.372,69.257Z" transform="translate(-66.341 -69.25)" fill="#e0e0e0"/>
        </g>
      </g>
    </g>
    <g id="Floor" transform="translate(13.609 478.062)">
      <g id="Group_31211" data-name="Group 31211">
        <path id="Path_17563" data-name="Path 17563" d="M504.474,459.907c0,.153-109.893.278-245.421.278-135.575,0-245.444-.125-245.444-.278s109.869-.279,245.444-.279C394.581,459.628,504.474,459.753,504.474,459.907Z" transform="translate(-13.609 -459.628)" fill="#263238"/>
      </g>
    </g>
    <g id="Thesis" transform="translate(43.146 83.55)">
      <g id="Group_31220" data-name="Group 31220">
        <path id="Path_17564" data-name="Path 17564" d="M41.938,126.615,85.9,378.338l185.357-29.111,8.592-20.752L229.7,95.717,55.958,106.086Z" transform="translate(-41.938 -80.639)" fill="#e0e0e0"/>
        <path id="Path_17565" data-name="Path 17565" d="M85.9,377.9l13.168-20.185L55.106,105.991,41.938,126.176Z" transform="translate(-41.938 -80.201)" opacity="0.3"/>
        <g id="Group_31213" data-name="Group 31213" transform="translate(13.168)">
          <path id="Path_17566" data-name="Path 17566" d="M54.567,107.036,98.529,358.759,279.31,329.082,233.641,81.5Z" transform="translate(-54.567 -81.246)" fill="#fafafa"/>
          <g id="Group_31212" data-name="Group 31212">
            <path id="Path_17567" data-name="Path 17567" d="M54.567,107.046,233.609,81.287l.215-.031.039.214c12.777,69.182,28.6,154.879,45.722,247.572l.052.28-.282.046-2.984.49L98.57,359.02l-.248.041-.043-.247L54.567,107.046c.39,2.22,18.1,103.046,44.213,251.68l-.292-.206,177.793-29.212,2.984-.49-.229.325L233.418,81.552l.254.182Z" transform="translate(-54.567 -81.256)" fill="#263238"/>
          </g>
        </g>
        <circle id="Ellipse_853" data-name="Ellipse 853" cx="30.815" cy="30.815" r="30.815" transform="translate(92.965 167.416) rotate(-82.433)" fill="#207bef"/>
        <path id="Path_17568" data-name="Path 17568" d="M150.8,224.738l-1.4-8.865,30.732-4.856,1.312,8.306s-1.874,7.169-14.306,9.134S150.8,224.738,150.8,224.738Z" transform="translate(-37.354 -75.721)" fill="#fff"/>
        <path id="Path_17569" data-name="Path 17569" d="M144.752,216.144l21.921,3.893,19.024-10.7-21.964-3.463Z" transform="translate(-37.552 -75.94)" fill="#fff"/>
        <rect id="Rectangle_2869" data-name="Rectangle 2869" width="115.205" height="7.26" rx="2.347" transform="translate(57.175 71.735) rotate(-8.977)" fill="#e0e0e0"/>
        <rect id="Rectangle_2870" data-name="Rectangle 2870" width="74.849" height="7.26" rx="2.347" transform="translate(79.791 83.566) rotate(-8.977)" fill="#e0e0e0"/>
        <rect id="Rectangle_2871" data-name="Rectangle 2871" width="74.849" height="7.26" rx="2.347" transform="translate(104.674 238.013) rotate(-8.977)" fill="#e0e0e0"/>
        <g id="Group_31214" data-name="Group 31214" transform="translate(10.582 45.633)">
          <path id="Path_17570" data-name="Path 17570" d="M270.113,334.22s-.3.066-.877.168l-2.588.444-10,1.667-37.126,6.091L94.085,362.979l-.268.044-.047-.268c-1.758-9.952-3.6-20.387-5.477-31.01L62.577,185.584c-3.262-18.7-5.9-33.83-7.73-44.3-.9-5.224-1.6-9.282-2.074-12.05-.229-1.369-.4-2.417-.525-3.136s-.161-1.072-.161-1.072.083.359.217,1.062.326,1.761.58,3.126c.5,2.764,1.233,6.817,2.177,12.032,1.868,10.466,4.569,25.588,7.9,44.272,6.624,37.405,15.772,89.064,25.878,146.134,1.874,10.623,3.715,21.057,5.471,31.011L94,362.435,219.464,342.23l37.153-5.926,10.015-1.572,2.6-.394C269.812,334.251,270.113,334.22,270.113,334.22Z" transform="translate(-52.087 -125.022)" fill="#263238"/>
        </g>
        <g id="Group_31215" data-name="Group 31215" transform="translate(3.944 50.787)">
          <path id="Path_17571" data-name="Path 17571" d="M256.6,343.478s-.278.064-.827.163l-2.442.426-9.441,1.6-35.116,5.867L89.624,371.26l-.266.045-.049-.266c-2.184-12-4.457-24.48-6.78-37.233-10.21-56.285-19.451-107.232-26.143-144.122-3.317-18.437-6-33.359-7.86-43.686-.914-5.151-1.624-9.152-2.108-11.882q-.35-2.025-.535-3.093c-.118-.7-.164-1.057-.164-1.057s.083.352.22,1.047.332,1.737.589,3.083c.508,2.724,1.253,6.721,2.211,11.863,1.9,10.32,4.643,25.23,8.034,43.654,6.733,36.883,16.032,87.82,26.3,144.093,2.319,12.755,4.589,25.235,6.771,37.235l-.315-.222c47.54-7.792,89.3-14.636,119.181-19.535l35.142-5.7,9.458-1.511,2.449-.377C256.316,343.509,256.6,343.478,256.6,343.478Z" transform="translate(-45.72 -129.965)" fill="#263238"/>
        </g>
        <g id="Group_31218" data-name="Group 31218" transform="translate(0.808 124.506)">
          <path id="Path_17572" data-name="Path 17572" d="M58.922,208.227l-4.066,5.764L64.744,273.3l5.892,2Z" transform="translate(-42.195 -200.346)" fill="#263238"/>
          <rect id="Rectangle_2872" data-name="Rectangle 2872" width="28.65" height="68.09" transform="translate(16.727 7.881) rotate(-9.907)" fill="#263238"/>
          <rect id="Rectangle_2873" data-name="Rectangle 2873" width="5.72" height="72.818" rx="1.849" transform="matrix(0.985, -0.172, 0.172, 0.985, 42.144, 0.984)" fill="#263238"/>
          <path id="Path_17573" data-name="Path 17573" d="M81.6,224.61l-18.316,10.4a11.878,11.878,0,0,0-10.4-3.647,11.89,11.89,0,1,0,3.769,23.478,11.868,11.868,0,0,0,8.906-7.1l20.676,3.295a1.373,1.373,0,0,0,1.568-1.592l-4.169-23.868A1.373,1.373,0,0,0,81.6,224.61Z" transform="translate(-42.713 -199.655)" fill="none" stroke="#455a64" stroke-miterlimit="10" stroke-width="2"/>
          <g id="Group_31216" data-name="Group 31216" transform="translate(42.621 3.755)">
            <path id="Path_17574" data-name="Path 17574" d="M95.156,270.46a3.259,3.259,0,0,1-.149-.67c-.093-.5-.213-1.133-.361-1.922-.318-1.741-.758-4.144-1.3-7.082L89.177,237.4c-1.579-9.113-3.007-17.358-4.055-23.41l-1.171-7.1c-.119-.793-.216-1.436-.291-1.936a3.149,3.149,0,0,1-.064-.682,3.151,3.151,0,0,1,.174.662l.394,1.917c.331,1.74.787,4.139,1.345,7.074,1.111,5.978,2.607,14.243,4.216,23.382s3.029,17.413,4.013,23.414c.493,3,.877,5.43,1.122,7.114.118.844.215,1.493.259,1.945A3.142,3.142,0,0,1,95.156,270.46Z" transform="translate(-83.59 -204.27)" fill="#455a64"/>
          </g>
          <g id="Group_31217" data-name="Group 31217" transform="translate(16.317 8.993)">
            <path id="Path_17575" data-name="Path 17575" d="M69.928,275.485a3.259,3.259,0,0,1-.149-.67c-.093-.5-.213-1.133-.361-1.922-.319-1.741-.758-4.144-1.3-7.082l-4.174-23.385c-1.579-9.112-3.007-17.357-4.055-23.41l-1.171-7.1c-.119-.794-.216-1.436-.291-1.937a3.14,3.14,0,0,1-.064-.682,3.2,3.2,0,0,1,.174.662c.1.5.233,1.132.394,1.918.331,1.739.787,4.138,1.345,7.073,1.111,5.978,2.607,14.244,4.217,23.383s3.028,17.413,4.013,23.414c.492,3,.877,5.43,1.122,7.113.118.845.215,1.493.259,1.946A3.143,3.143,0,0,1,69.928,275.485Z" transform="translate(-58.362 -209.294)" fill="#455a64"/>
          </g>
        </g>
        <g id="Group_31219" data-name="Group 31219" transform="translate(107.2 133.395)">
          <path id="Path_17576" data-name="Path 17576" d="M185.7,209.2a10.11,10.11,0,0,1-1.44.933l-4.029,2.367c-3.416,1.979-8.156,4.682-13.418,7.642l-.088.049-.1-.018-.215-.038c-6-1.065-11.416-2.059-15.335-2.806l-4.636-.913a10.425,10.425,0,0,1-1.686-.41,10.186,10.186,0,0,1,1.725.2l4.667.738c3.936.647,9.368,1.581,15.364,2.645l.214.039-.186.031c5.263-2.959,10.035-5.606,13.5-7.5l4.116-2.214A10.151,10.151,0,0,1,185.7,209.2Z" transform="translate(-144.752 -209.193)" fill="#263238"/>
        </g>
      </g>
    </g>
    <g id="Books" transform="translate(149.454 338.519)">
      <g id="Group_31239" data-name="Group 31239">
        <g id="Group_31226" data-name="Group 31226" transform="translate(39.247)">
          <path id="Rectangle_2874" data-name="Rectangle 2874" d="M17.647,0H107.3a0,0,0,0,1,0,0V46.65a0,0,0,0,1,0,0H17.647A17.647,17.647,0,0,1,0,29V17.647A17.647,17.647,0,0,1,17.647,0Z" transform="translate(0 0)" fill="#207bef"/>
          <path id="Rectangle_2875" data-name="Rectangle 2875" d="M0,0H187.625a2.929,2.929,0,0,1,2.929,2.929V4.815a2.929,2.929,0,0,1-2.929,2.929H0a0,0,0,0,1,0,0V0A0,0,0,0,1,0,0Z" transform="translate(84.057 0)" fill="#207bef"/>
          <path id="Rectangle_2876" data-name="Rectangle 2876" d="M0,0H187.625a2.929,2.929,0,0,1,2.929,2.929V4.815a2.929,2.929,0,0,1-2.929,2.929H0a0,0,0,0,1,0,0V0A0,0,0,0,1,0,0Z" transform="translate(84.057 38.906)" fill="#207bef"/>
          <path id="Path_17577" data-name="Path 17577" d="M446.793,364.383H283.186a15.58,15.58,0,0,1-15.58-15.58h0a15.581,15.581,0,0,1,15.58-15.581H446.793A38.532,38.532,0,0,0,446.793,364.383Z" transform="translate(-177.866 -325.477)" fill="#f5f5f5"/>
          <path id="Path_17578" data-name="Path 17578" d="M271.277,372.444H200.3a18.764,18.764,0,0,1-18.764-18.764v-9.265a18.621,18.621,0,0,1,18.621-18.621h72.9C256.162,336.026,257.425,360.529,271.277,372.444Z" transform="translate(-181.537 -325.794)" opacity="0.3"/>
          <g id="Group_31221" data-name="Group 31221" transform="translate(99.051 24.492)">
            <path id="Path_17579" data-name="Path 17579" d="M426.535,349.563c0,.154-33.581.279-75,.279s-75-.125-75-.279,33.574-.279,75-.279S426.535,349.409,426.535,349.563Z" transform="translate(-276.536 -349.284)" fill="#263238"/>
          </g>
          <g id="Group_31222" data-name="Group 31222" transform="translate(114.486 31.418)">
            <path id="Path_17580" data-name="Path 17580" d="M441.339,356.206c0,.154-33.582.278-75,.278s-75-.124-75-.278,33.575-.279,75-.279S441.339,356.052,441.339,356.206Z" transform="translate(-291.339 -355.927)" fill="#263238"/>
          </g>
          <g id="Group_31223" data-name="Group 31223" transform="translate(109.935 14.67)">
            <path id="Path_17581" data-name="Path 17581" d="M436.973,340.143c0,.153-33.581.278-75,.278s-75-.125-75-.278,33.575-.279,75-.279S436.973,339.989,436.973,340.143Z" transform="translate(-286.974 -339.864)" fill="#263238"/>
          </g>
          <g id="Group_31224" data-name="Group 31224" transform="translate(11.314 43.101)">
            <path id="Path_17582" data-name="Path 17582" d="M262.6,367.411c0,.154-15.719.278-35.1.278s-35.108-.124-35.108-.278,15.715-.279,35.108-.279S262.6,367.257,262.6,367.411Z" transform="translate(-192.388 -367.132)" fill="#263238"/>
          </g>
          <g id="Group_31225" data-name="Group 31225" transform="translate(11.314 3.593)">
            <path id="Path_17583" data-name="Path 17583" d="M262.6,329.519c0,.154-15.719.278-35.1.278s-35.108-.124-35.108-.278,15.715-.279,35.108-.279S262.6,329.365,262.6,329.519Z" transform="translate(-192.388 -329.24)" fill="#263238"/>
          </g>
        </g>
        <g id="Group_31232" data-name="Group 31232" transform="translate(0 79.396)">
          <path id="Rectangle_2877" data-name="Rectangle 2877" d="M17.647,0H138.183a0,0,0,0,1,0,0V60.078a0,0,0,0,1,0,0H17.647A17.647,17.647,0,0,1,0,42.431V17.647A17.647,17.647,0,0,1,17.647,0Z" transform="translate(0 0)" fill="#207bef"/>
          <path id="Rectangle_2878" data-name="Rectangle 2878" d="M0,0H242.475A2.929,2.929,0,0,1,245.4,2.929V7.044a2.929,2.929,0,0,1-2.929,2.929H0a0,0,0,0,1,0,0V0A0,0,0,0,1,0,0Z" transform="translate(108.252 0)" fill="#207bef"/>
          <path id="Rectangle_2879" data-name="Rectangle 2879" d="M0,0H242.475A2.929,2.929,0,0,1,245.4,2.929V7.044a2.929,2.929,0,0,1-2.929,2.929H0a0,0,0,0,1,0,0V0A0,0,0,0,1,0,0Z" transform="translate(108.252 50.105)" fill="#207bef"/>
          <path id="Path_17584" data-name="Path 17584" d="M485.5,451.639H274.8a20.065,20.065,0,0,1-20.065-20.066h0A20.065,20.065,0,0,1,274.8,411.508H485.5A49.625,49.625,0,0,0,485.5,451.639Z" transform="translate(-139.168 -401.534)" fill="#f5f5f5"/>
          <path id="Path_17585" data-name="Path 17585" d="M259.468,462.02h-97.41A18.162,18.162,0,0,1,143.9,443.859V420.747A18.805,18.805,0,0,1,162.7,401.942h99.054C240,415.119,241.627,446.676,259.468,462.02Z" transform="translate(-143.896 -401.942)" opacity="0.3"/>
          <g id="Group_31227" data-name="Group 31227" transform="translate(127.562 31.623)">
            <path id="Path_17586" data-name="Path 17586" d="M459.414,432.55c0,.153-43.247.278-96.582.278-53.355,0-96.593-.125-96.593-.278s43.238-.279,96.593-.279C416.167,432.271,459.414,432.4,459.414,432.55Z" transform="translate(-266.239 -432.271)" fill="#263238"/>
          </g>
          <g id="Group_31228" data-name="Group 31228" transform="translate(147.44 40.543)">
            <path id="Path_17587" data-name="Path 17587" d="M478.479,441.105c0,.153-43.247.278-96.582.278-53.355,0-96.593-.125-96.593-.278s43.238-.279,96.593-.279C435.232,440.826,478.479,440.951,478.479,441.105Z" transform="translate(-285.304 -440.826)" fill="#263238"/>
          </g>
          <g id="Group_31229" data-name="Group 31229" transform="translate(141.579 23.346)">
            <path id="Path_17588" data-name="Path 17588" d="M472.858,424.611c0,.154-43.247.279-96.583.279-53.354,0-96.592-.125-96.592-.279s43.238-.278,96.592-.278C429.611,424.333,472.858,424.457,472.858,424.611Z" transform="translate(-279.683 -424.333)" fill="#263238"/>
          </g>
          <g id="Group_31230" data-name="Group 31230" transform="translate(14.57 55.589)">
            <path id="Path_17589" data-name="Path 17589" d="M248.293,455.535c0,.154-20.243.279-45.21.279s-45.214-.125-45.214-.279,20.239-.278,45.214-.278S248.293,455.381,248.293,455.535Z" transform="translate(-157.87 -455.257)" fill="#263238"/>
          </g>
          <g id="Group_31231" data-name="Group 31231" transform="translate(14.57 4.708)">
            <path id="Path_17590" data-name="Path 17590" d="M248.293,406.736c0,.154-20.243.279-45.21.279s-45.214-.125-45.214-.279,20.239-.279,45.214-.279S248.293,406.582,248.293,406.736Z" transform="translate(-157.87 -406.457)" fill="#263238"/>
          </g>
        </g>
        <g id="Group_31238" data-name="Group 31238" transform="translate(61.798 44.939)">
          <path id="Rectangle_2880" data-name="Rectangle 2880" d="M13.012,0h99.257a0,0,0,0,1,0,0V34.4a0,0,0,0,1,0,0H13.012A13.012,13.012,0,0,1,0,21.386V13.012A13.012,13.012,0,0,1,13.012,0Z" transform="translate(0 0.279)" fill="#455a64"/>
          <path id="Rectangle_2881" data-name="Rectangle 2881" d="M0,0H196.318a3.065,3.065,0,0,1,3.065,3.065V5.038A3.065,3.065,0,0,1,196.318,8.1H0a0,0,0,0,1,0,0V0A0,0,0,0,1,0,0Z" transform="translate(87.952 0.279)" fill="#455a64"/>
          <path id="Rectangle_2882" data-name="Rectangle 2882" d="M0,0H196.318a3.065,3.065,0,0,1,3.065,3.065V5.038A3.065,3.065,0,0,1,196.318,8.1H0a0,0,0,0,1,0,0V0A0,0,0,0,1,0,0Z" transform="translate(87.952 26.574)" fill="#455a64"/>
          <path id="Path_17591" data-name="Path 17591" d="M480.713,395.125H302.318a9.1,9.1,0,0,1-9.1-9.1h0a9.1,9.1,0,0,1,9.1-9.1H480.713Q473.827,386.029,480.713,395.125Z" transform="translate(-199.324 -368.551)" fill="#f5f5f5"/>
          <path id="Path_17592" data-name="Path 17592" d="M297.065,403.559H216.824A13.657,13.657,0,0,1,203.166,389.9V383.1A13.933,13.933,0,0,1,217.1,369.162h81.824C281.249,376.707,282.57,394.774,297.065,403.559Z" transform="translate(-203.166 -368.883)" opacity="0.3"/>
          <g id="Group_31233" data-name="Group 31233" transform="translate(103.641 15.767)">
            <path id="Path_17593" data-name="Path 17593" d="M459.515,384.294c0,.154-35.138.279-78.47.279-43.35,0-78.479-.125-78.479-.279s35.129-.278,78.479-.278C424.378,384.016,459.515,384.141,459.515,384.294Z" transform="translate(-302.566 -384.016)" fill="#263238"/>
          </g>
          <g id="Group_31234" data-name="Group 31234" transform="translate(119.791 20.663)">
            <path id="Path_17594" data-name="Path 17594" d="M475.005,388.99c0,.154-35.138.279-78.471.279s-78.478-.125-78.478-.279,35.129-.278,78.478-.278S475.005,388.836,475.005,388.99Z" transform="translate(-318.056 -388.712)" fill="#263238"/>
          </g>
          <g id="Group_31235" data-name="Group 31235" transform="translate(11.838 30.977)">
            <path id="Path_17595" data-name="Path 17595" d="M287.986,398.883c0,.153-16.448.278-36.732.278s-36.735-.125-36.735-.278,16.444-.279,36.735-.279S287.986,398.729,287.986,398.883Z" transform="translate(-214.519 -398.604)" fill="#263238"/>
          </g>
          <g id="Group_31236" data-name="Group 31236" transform="translate(11.838 4.052)">
            <path id="Path_17596" data-name="Path 17596" d="M287.986,373.058c0,.154-16.448.279-36.732.279s-36.735-.125-36.735-.279,16.444-.278,36.735-.278S287.986,372.905,287.986,373.058Z" transform="translate(-214.519 -372.78)" fill="#263238"/>
          </g>
          <g id="Group_31237" data-name="Group 31237" transform="translate(15.495)">
            <path id="Path_17597" data-name="Path 17597" d="M487.526,369.173c0,.153-60.334.278-134.743.278-74.434,0-134.756-.125-134.756-.278s60.322-.279,134.756-.279C427.191,368.894,487.526,369.019,487.526,369.173Z" transform="translate(-218.027 -368.894)" fill="#263238"/>
          </g>
        </g>
        <path id="Path_17598" data-name="Path 17598" d="M372.725,339.642v18.683l6.476-4.152,7.223,4.152V339.642Z" transform="translate(-134.135 -325.203)" fill="#207bef"/>
      </g>
    </g>
    <g id="Pencil" transform="translate(371.655 167.501)">
      <g id="Group_31243" data-name="Group 31243" transform="translate(0)">
        <g id="Group_31242" data-name="Group 31242">
          <g id="Group_31241" data-name="Group 31241">
            <path id="Path_17599" data-name="Path 17599" d="M439.2,161.773l-32.6,27.153L357.007,286.9l30.92,13.973,48.227-96.088Z" transform="translate(-357.007 -161.773)" fill="#207bef"/>
            <g id="Group_31240" data-name="Group 31240" transform="translate(49.83)" opacity="0.7">
              <path id="Path_17600" data-name="Path 17600" d="M434.115,204.786a2.51,2.51,0,0,1-3.078-2.521,7.55,7.55,0,0,1-13.27-5.348,8.808,8.808,0,0,1-12.96-8.192l32.354-26.952Z" transform="translate(-404.798 -161.773)" fill="#fff"/>
            </g>
            <path id="Path_17601" data-name="Path 17601" d="M423.264,172.693s.493,8.112,11.861,6.7l1.248-17.623Z" transform="translate(-354.18 -161.773)" fill="#207bef"/>
          </g>
        </g>
        <path id="Path_17602" data-name="Path 17602" d="M419.806,195.814l-47.8,96.233-15-6.249L406.6,187.824l.246-.2a8.452,8.452,0,0,0,.675,3.814,9.144,9.144,0,0,0,3.206,3.92,8.7,8.7,0,0,0,5.937,1.448A8.867,8.867,0,0,0,419.806,195.814Z" transform="translate(-357.007 -160.67)" opacity="0.3"/>
        <path id="Path_17603" data-name="Path 17603" d="M431.973,200.608l-49.114,96.817,3.965,1.792,48.227-96.088A2.67,2.67,0,0,1,432,201.236,3.046,3.046,0,0,1,431.973,200.608Z" transform="translate(-355.904 -160.116)" opacity="0.3"/>
      </g>
    </g>
    <g id="Graduation_Cap" data-name="Graduation Cap" transform="translate(218.545 272.343)">
      <g id="Group_31248" data-name="Group 31248">
        <g id="Group_31244" data-name="Group 31244" transform="translate(268.57 2.424)">
          <path id="Path_17604" data-name="Path 17604" d="M467.743,265.3V350.7a.67.67,0,0,0,1.34,0V265.3a.67.67,0,0,0-1.34,0Z" transform="translate(-467.743 -264.65)" fill="#207bef"/>
        </g>
        <path id="Path_17605" data-name="Path 17605" d="M473.417,329.331a4.817,4.817,0,1,1-4.817-4.817A4.818,4.818,0,0,1,473.417,329.331Z" transform="translate(-199.342 -259.672)" fill="#207bef"/>
        <path id="Path_17606" data-name="Path 17606" d="M467.337,331.529s-3.509,3.508-4.561,13.8-1.287,15.436-1.287,15.436l9.472.585v-7.367c0,.351,1.872,5.5,1.872,5.5l7.483-2.455S477.627,329.658,467.337,331.529Z" transform="translate(-199.44 -259.377)" fill="#207bef"/>
        <rect id="Rectangle_2883" data-name="Rectangle 2883" width="160.78" height="57.966" transform="translate(57.874 10.06)" fill="#263238"/>
        <rect id="Rectangle_2884" data-name="Rectangle 2884" width="275.005" height="9.976" transform="translate(0.126 0.084)" fill="#263238"/>
        <path id="Path_17607" data-name="Path 17607" d="M265.667,313.494s48.844-17.525,80.39-24,80.39-4.313,80.39-4.313V271.973H265.667Z" transform="translate(-207.793 -261.913)" opacity="0.3"/>
        <rect id="Rectangle_2885" data-name="Rectangle 2885" width="99.47" height="9.976" transform="translate(0.126 0.084)" opacity="0.3"/>
        <g id="Group_31245" data-name="Group 31245" transform="translate(0 9.781)">
          <path id="Path_17608" data-name="Path 17608" d="M483.3,271.984c0,.154-61.148.279-136.561.279-75.438,0-136.574-.125-136.574-.279s61.135-.278,136.574-.278C422.148,271.706,483.3,271.831,483.3,271.984Z" transform="translate(-210.161 -271.706)" fill="#455a64"/>
        </g>
        <g id="Group_31246" data-name="Group 31246" transform="translate(99.155)">
          <path id="Path_17609" data-name="Path 17609" d="M305.538,272.469a46.173,46.173,0,0,1,0-10.144,46.344,46.344,0,0,1,0,10.144Z" transform="translate(-305.259 -262.325)" fill="#455a64"/>
        </g>
        <g id="Group_31247" data-name="Group 31247" transform="translate(122.091 17.508)">
          <path id="Path_17610" data-name="Path 17610" d="M327.535,329.635c-.153,0-.278-11.31-.278-25.257s.125-25.26.278-25.26.279,11.307.279,25.26S327.69,329.635,327.535,329.635Z" transform="translate(-327.257 -279.117)" fill="#455a64"/>
        </g>
      </g>
    </g>
    <g id="Character" transform="translate(39.389 270.414)">
      <g id="Group_31545" data-name="Group 31545">
        <g id="Group_31255" data-name="Group 31255" transform="translate(37.083 96.793)">
          <g id="Group_31250" data-name="Group 31250" transform="translate(29.539)">
            <g id="Group_31249" data-name="Group 31249">
              <path id="Path_17611" data-name="Path 17611" d="M104.543,397.652l18.486-7.459,14.12-36.885,18.822,9.7s-1.82,3.643-5.711,12.656c-1.5,3.479-6.478,13.179-8.506,17.9a24.844,24.844,0,0,1-22.176,15.062l-17.347.453Z" transform="translate(-102.231 -353.308)" fill="#ffbf9d"/>
            </g>
          </g>
          <path id="Path_17612" data-name="Path 17612" d="M96.569,389.132,93.777,386.2a3.158,3.158,0,0,0-1.807-.5l-8.848.269a5.54,5.54,0,0,0-4.093,2.478l-3.217,5.476s-2.162,3.746-1.887,4.657a1.619,1.619,0,0,0,1.866,1.095s.307,1.731.887,2.083a2.714,2.714,0,0,0,2.149.138,1.825,1.825,0,0,0,1.741,1.055,2.171,2.171,0,0,0,.46-.085c1.05-.318,1.523-2.351,1.523-2.351l4.487-.831s6.443,4.307,8.712,7.13,8.219.665,8.219.665l2.225-10.64Z" transform="translate(-73.901 -351.927)" fill="#ffbf9d"/>
          <g id="Group_31251" data-name="Group 31251" transform="translate(1.909 38.43)">
            <path id="Path_17613" data-name="Path 17613" d="M89.971,390.211a7.055,7.055,0,0,1-1.935.322c-1.22.136-2.947.185-4.889.437l.211-.154a18.744,18.744,0,0,1-1.15,2.118,23.661,23.661,0,0,1-4.253,5.033,8.148,8.148,0,0,1-2.22,1.586c-.05-.071.773-.7,1.95-1.874a29.142,29.142,0,0,0,4.051-5.04,20.828,20.828,0,0,0,1.132-2.049l.067-.139.144-.016c2-.225,3.717-.2,4.937-.244A9.54,9.54,0,0,1,89.971,390.211Z" transform="translate(-75.732 -390.166)" fill="#ff9a6c"/>
          </g>
          <g id="Group_31252" data-name="Group 31252" transform="translate(4.798 42.405)">
            <path id="Path_17614" data-name="Path 17614" d="M90.056,394.269a4.281,4.281,0,0,1-1.666.444,12.736,12.736,0,0,1-4.328-.151l.315-.179a14.462,14.462,0,0,1-.646,1.6,13.509,13.509,0,0,1-3.325,4.369,5.626,5.626,0,0,1-1.9,1.246c-.05-.073.656-.569,1.632-1.535a15.686,15.686,0,0,0,3.09-4.321,16.482,16.482,0,0,0,.634-1.537l.082-.231.233.052A21.65,21.65,0,0,0,90.056,394.269Z" transform="translate(-78.503 -393.978)" fill="#ff9a6c"/>
          </g>
          <g id="Group_31254" data-name="Group 31254" transform="translate(7.489 39.938)">
            <path id="Path_17615" data-name="Path 17615" d="M101.168,396.543l-7.891-3.668a8.263,8.263,0,0,0-3.436-1.022,8.293,8.293,0,0,0-3.657,1.213l-4.246,2.2a1.022,1.022,0,0,0-.563.508.953.953,0,0,0,.366.895,6.249,6.249,0,0,0,8.22.337,17,17,0,0,0,2.662,5.255,5.764,5.764,0,0,0,5.2,2.217" transform="translate(-81.072 -391.602)" fill="#ffbf9d"/>
            <g id="Group_31253" data-name="Group 31253">
              <path id="Path_17616" data-name="Path 17616" d="M97.835,404.485c0,.014-.069.038-.212.07a3.1,3.1,0,0,1-.643.073,5.024,5.024,0,0,1-2.376-.577,7.434,7.434,0,0,1-2.8-2.549,20.561,20.561,0,0,1-2.067-4.4l.394.1a6.287,6.287,0,0,1-4.594,1.438,6.679,6.679,0,0,1-2.562-.717,6.088,6.088,0,0,1-1.139-.788,3.36,3.36,0,0,1-.51-.52,1.042,1.042,0,0,1-.224-.859,1,1,0,0,1,.471-.59c.188-.117.349-.189.514-.277l.984-.508L85,393.388a17.271,17.271,0,0,1,3.8-1.658,5.829,5.829,0,0,1,3.744.567c1.068.486,2.029.96,2.923,1.385l4.2,2.051a10.076,10.076,0,0,1,1.508.821,10.119,10.119,0,0,1-1.6-.624l-4.275-1.89-2.938-1.318a5.4,5.4,0,0,0-3.45-.49,17.411,17.411,0,0,0-3.664,1.641l-1.921,1-.983.511c-.336.171-.685.338-.7.506-.068.205.237.567.561.829a5.642,5.642,0,0,0,1.029.715,6.173,6.173,0,0,0,2.345.667,5.819,5.819,0,0,0,4.229-1.273l.274-.236.121.338a21.1,21.1,0,0,0,1.942,4.348,7.316,7.316,0,0,0,2.592,2.515A5.668,5.668,0,0,0,97.835,404.485Z" transform="translate(-81.084 -391.612)" fill="#ff9a6c"/>
            </g>
          </g>
        </g>
        <g id="Group_31463" data-name="Group 31463" transform="translate(106.339)">
          <g id="Group_31256" data-name="Group 31256" transform="translate(38.711)">
            <path id="Path_17617" data-name="Path 17617" d="M199.71,298.837c.071-5.921,1-11.824.777-17.742s-1.785-12.082-5.914-16.328-11.3-5.865-16.131-2.44l-.991,5.04c1.9,22.835,1.642,46.041,3.544,68.875.249,3,2.684,5.716,4.049,8.4s4.1,4.9,7.106,4.714c3.931-.242,6.51-4.227,7.732-7.971C204.313,327.813,199.538,313.114,199.71,298.837Z" transform="translate(-177.451 -260.475)" fill="#263238"/>
          </g>
          <g id="Group_31257" data-name="Group 31257" transform="translate(37.141 1.946)">
            <path id="Path_17618" data-name="Path 17618" d="M185.531,268.054a16.489,16.489,0,0,0-3.011-4.081,5.641,5.641,0,0,0-4.662-1.558,2.34,2.34,0,0,0-1.848,1.35c-.264.754.3,1.761,1.1,1.7l.17.146q2.659,2.352,5.411,4.6a4.624,4.624,0,0,0,1.511.934,1.6,1.6,0,0,0,1.655-.352C186.508,270.05,186.031,268.9,185.531,268.054Z" transform="translate(-175.945 -262.341)" fill="#ff725e"/>
          </g>
          <g id="Group_31258" data-name="Group 31258" transform="translate(0 1.946)">
            <path id="Path_17619" data-name="Path 17619" d="M190.4,273.868c-5.9-7.214-13.828-11.367-23.146-11.521-5.258-.087-7.434,1.006-11.22,2.028a16.591,16.591,0,0,0-9.461,6.258c-2.683,3.808-4.936,8.072-5.444,12.7a78.094,78.094,0,0,0-.684,14.316,26.15,26.15,0,0,0,4.465,13.449l12.14,2.109c6.7.228,13.5.448,20.034-1.081s12.879-5.043,16.377-10.768C198.317,293.406,196.3,281.081,190.4,273.868Z" transform="translate(-140.323 -262.341)" fill="#263238"/>
          </g>
          <g id="Group_31456" data-name="Group 31456" transform="translate(2.712 6.958)">
            <path id="Path_17620" data-name="Path 17620" d="M179.484,273.582,163.3,267.149l-4.228.491c-9.513.034-16.075,10.526-16.137,18.231-.069,8.56.183,19.014,1.544,25.323,2.735,12.687,13.563,13.743,13.563,13.743s-.222,6.762-.3,11.021l24.779-1.788,1.245-56.243A4.509,4.509,0,0,0,179.484,273.582Z" transform="translate(-142.924 -267.149)" fill="#ffbf9d"/>
            <g id="Group_31260" data-name="Group 31260" transform="translate(14.862 38.743)">
              <g id="Group_31259" data-name="Group 31259">
                <path id="Path_17621" data-name="Path 17621" d="M162.9,306.641a2.7,2.7,0,0,0-.934-1.666,2.759,2.759,0,0,0-3.348-.192,3.7,3.7,0,0,0-1.4,3.471h0a3.359,3.359,0,0,0,2.405,1.4,3.84,3.84,0,0,0,.451.015,3.018,3.018,0,0,0,2.034-.8A2.692,2.692,0,0,0,162.9,306.641Z" transform="translate(-157.178 -304.307)" fill="#ff9a6c"/>
              </g>
            </g>
            <g id="Group_31421" data-name="Group 31421" transform="translate(2.879 14.886)">
              <g id="Group_31420" data-name="Group 31420">
                <g id="Group_31419" data-name="Group 31419">
                  <g id="Group_31277" data-name="Group 31277" transform="translate(1.419 13.094)">
                    <g id="Group_31276" data-name="Group 31276">
                      <g id="Group_31275" data-name="Group 31275">
                        <g id="Group_31274" data-name="Group 31274">
                          <g id="Group_31273" data-name="Group 31273">
                            <g id="Group_31272" data-name="Group 31272">
                              <g id="Group_31271" data-name="Group 31271">
                                <g id="Group_31270" data-name="Group 31270">
                                  <g id="Group_31269" data-name="Group 31269">
                                    <g id="Group_31268" data-name="Group 31268">
                                      <g id="Group_31267" data-name="Group 31267">
                                        <g id="Group_31266" data-name="Group 31266">
                                          <g id="Group_31265" data-name="Group 31265">
                                            <g id="Group_31264" data-name="Group 31264">
                                              <g id="Group_31263" data-name="Group 31263">
                                                <g id="Group_31262" data-name="Group 31262">
                                                  <g id="Group_31261" data-name="Group 31261">
                                                    <path id="Path_17622" data-name="Path 17622" d="M147.047,295.557a1.644,1.644,0,0,0,1.675,1.569,1.572,1.572,0,0,0,1.611-1.572,1.646,1.646,0,0,0-1.672-1.57A1.575,1.575,0,0,0,147.047,295.557Z" transform="translate(-147.047 -293.984)" fill="#263238"/>
                                                  </g>
                                                </g>
                                              </g>
                                            </g>
                                          </g>
                                        </g>
                                      </g>
                                    </g>
                                  </g>
                                </g>
                              </g>
                            </g>
                          </g>
                        </g>
                      </g>
                    </g>
                  </g>
                  <g id="Group_31295" data-name="Group 31295" transform="translate(0 6.208)">
                    <g id="Group_31294" data-name="Group 31294">
                      <g id="Group_31293" data-name="Group 31293">
                        <g id="Group_31292" data-name="Group 31292">
                          <g id="Group_31291" data-name="Group 31291">
                            <g id="Group_31290" data-name="Group 31290">
                              <g id="Group_31289" data-name="Group 31289">
                                <g id="Group_31288" data-name="Group 31288">
                                  <g id="Group_31287" data-name="Group 31287">
                                    <g id="Group_31286" data-name="Group 31286">
                                      <g id="Group_31285" data-name="Group 31285">
                                        <g id="Group_31284" data-name="Group 31284">
                                          <g id="Group_31283" data-name="Group 31283">
                                            <g id="Group_31282" data-name="Group 31282">
                                              <g id="Group_31281" data-name="Group 31281">
                                                <g id="Group_31280" data-name="Group 31280">
                                                  <g id="Group_31279" data-name="Group 31279">
                                                    <g id="Group_31278" data-name="Group 31278">
                                                      <path id="Path_17623" data-name="Path 17623" d="M145.716,289.287c.216.2,1.409-.785,3.175-.878,1.763-.117,3.11.72,3.29.493.089-.1-.14-.475-.727-.855a4.506,4.506,0,0,0-2.647-.66,4.331,4.331,0,0,0-2.513.967C145.774,288.8,145.611,289.2,145.716,289.287Z" transform="translate(-145.686 -287.379)" fill="#263238"/>
                                                    </g>
                                                  </g>
                                                </g>
                                              </g>
                                            </g>
                                          </g>
                                        </g>
                                      </g>
                                    </g>
                                  </g>
                                </g>
                              </g>
                            </g>
                          </g>
                        </g>
                      </g>
                    </g>
                  </g>
                  <g id="Group_31312" data-name="Group 31312" transform="translate(6.808 7.207)">
                    <g id="Group_31311" data-name="Group 31311">
                      <g id="Group_31310" data-name="Group 31310">
                        <g id="Group_31309" data-name="Group 31309">
                          <g id="Group_31308" data-name="Group 31308">
                            <g id="Group_31307" data-name="Group 31307">
                              <g id="Group_31306" data-name="Group 31306">
                                <g id="Group_31305" data-name="Group 31305">
                                  <g id="Group_31304" data-name="Group 31304">
                                    <g id="Group_31303" data-name="Group 31303">
                                      <g id="Group_31302" data-name="Group 31302">
                                        <g id="Group_31301" data-name="Group 31301">
                                          <g id="Group_31300" data-name="Group 31300">
                                            <g id="Group_31299" data-name="Group 31299">
                                              <g id="Group_31298" data-name="Group 31298">
                                                <g id="Group_31297" data-name="Group 31297">
                                                  <g id="Group_31296" data-name="Group 31296">
                                                    <path id="Path_17624" data-name="Path 17624" d="M156.789,303.1a11.79,11.79,0,0,0-2.9-.36c-.454-.022-.885-.088-.978-.392a2.3,2.3,0,0,1,.227-1.352q.547-1.673,1.146-3.509c1.583-4.991,2.7-9.086,2.5-9.147s-1.649,3.933-3.233,8.925q-.569,1.844-1.087,3.524a2.616,2.616,0,0,0-.138,1.783,1.138,1.138,0,0,0,.779.619,3.079,3.079,0,0,0,.772.065A11.469,11.469,0,0,0,156.789,303.1Z" transform="translate(-152.216 -288.338)" fill="#263238"/>
                                                  </g>
                                                </g>
                                              </g>
                                            </g>
                                          </g>
                                        </g>
                                      </g>
                                    </g>
                                  </g>
                                </g>
                              </g>
                            </g>
                          </g>
                        </g>
                      </g>
                    </g>
                  </g>
                  <g id="Group_31328" data-name="Group 31328" transform="translate(12.151 37.375)">
                    <g id="Group_31327" data-name="Group 31327">
                      <g id="Group_31326" data-name="Group 31326">
                        <g id="Group_31325" data-name="Group 31325">
                          <g id="Group_31324" data-name="Group 31324">
                            <g id="Group_31323" data-name="Group 31323">
                              <g id="Group_31322" data-name="Group 31322">
                                <g id="Group_31321" data-name="Group 31321">
                                  <g id="Group_31320" data-name="Group 31320">
                                    <g id="Group_31319" data-name="Group 31319">
                                      <g id="Group_31318" data-name="Group 31318">
                                        <g id="Group_31317" data-name="Group 31317">
                                          <g id="Group_31316" data-name="Group 31316">
                                            <g id="Group_31315" data-name="Group 31315">
                                              <g id="Group_31314" data-name="Group 31314">
                                                <g id="Group_31313" data-name="Group 31313">
                                                  <path id="Path_17625" data-name="Path 17625" d="M157.406,322.786a32.611,32.611,0,0,0,16.89-5.514s-4.08,9.122-16.956,8.628Z" transform="translate(-157.34 -317.272)" fill="#ff9a6c"/>
                                                </g>
                                              </g>
                                            </g>
                                          </g>
                                        </g>
                                      </g>
                                    </g>
                                  </g>
                                </g>
                              </g>
                            </g>
                          </g>
                        </g>
                      </g>
                    </g>
                  </g>
                  <g id="Group_31345" data-name="Group 31345" transform="translate(11.275 22.905)">
                    <g id="Group_31344" data-name="Group 31344">
                      <g id="Group_31343" data-name="Group 31343">
                        <g id="Group_31342" data-name="Group 31342">
                          <g id="Group_31341" data-name="Group 31341">
                            <g id="Group_31340" data-name="Group 31340">
                              <g id="Group_31339" data-name="Group 31339">
                                <g id="Group_31338" data-name="Group 31338">
                                  <g id="Group_31337" data-name="Group 31337">
                                    <g id="Group_31336" data-name="Group 31336">
                                      <g id="Group_31335" data-name="Group 31335">
                                        <g id="Group_31334" data-name="Group 31334">
                                          <g id="Group_31333" data-name="Group 31333">
                                            <g id="Group_31332" data-name="Group 31332">
                                              <g id="Group_31331" data-name="Group 31331">
                                                <g id="Group_31330" data-name="Group 31330">
                                                  <g id="Group_31329" data-name="Group 31329">
                                                    <path id="Path_17626" data-name="Path 17626" d="M161.872,303.394c-.289,0-.187,1.916-1.754,3.367s-3.618,1.352-3.618,1.621c-.021.122.475.347,1.339.323a4.778,4.778,0,0,0,3.027-1.245,4.156,4.156,0,0,0,1.347-2.816C162.242,303.838,162,303.375,161.872,303.394Z" transform="translate(-156.499 -303.393)" fill="#263238"/>
                                                  </g>
                                                </g>
                                              </g>
                                            </g>
                                          </g>
                                        </g>
                                      </g>
                                    </g>
                                  </g>
                                </g>
                              </g>
                            </g>
                          </g>
                        </g>
                      </g>
                    </g>
                  </g>
                  <g id="Group_31364" data-name="Group 31364" transform="translate(0.589 0.23)">
                    <g id="Group_31363" data-name="Group 31363">
                      <g id="Group_31362" data-name="Group 31362">
                        <g id="Group_31361" data-name="Group 31361">
                          <g id="Group_31360" data-name="Group 31360">
                            <g id="Group_31359" data-name="Group 31359">
                              <g id="Group_31358" data-name="Group 31358">
                                <g id="Group_31357" data-name="Group 31357">
                                  <g id="Group_31356" data-name="Group 31356">
                                    <g id="Group_31355" data-name="Group 31355">
                                      <g id="Group_31354" data-name="Group 31354">
                                        <g id="Group_31353" data-name="Group 31353">
                                          <g id="Group_31352" data-name="Group 31352">
                                            <g id="Group_31351" data-name="Group 31351">
                                              <g id="Group_31350" data-name="Group 31350">
                                                <g id="Group_31349" data-name="Group 31349">
                                                  <g id="Group_31348" data-name="Group 31348">
                                                    <g id="Group_31347" data-name="Group 31347">
                                                      <g id="Group_31346" data-name="Group 31346">
                                                        <path id="Path_17627" data-name="Path 17627" d="M146.294,283.347c.321.415,1.658.052,3.245.1,1.589-.006,2.919.389,3.246-.019.145-.2-.051-.609-.622-1.013a4.783,4.783,0,0,0-2.611-.764,4.729,4.729,0,0,0-2.619.7C146.354,282.739,146.153,283.144,146.294,283.347Z" transform="translate(-146.251 -281.647)" fill="#263238"/>
                                                      </g>
                                                    </g>
                                                  </g>
                                                </g>
                                              </g>
                                            </g>
                                          </g>
                                        </g>
                                      </g>
                                    </g>
                                  </g>
                                </g>
                              </g>
                            </g>
                          </g>
                        </g>
                      </g>
                    </g>
                  </g>
                  <g id="Group_31381" data-name="Group 31381" transform="translate(17.418 12.765)">
                    <g id="Group_31380" data-name="Group 31380">
                      <g id="Group_31379" data-name="Group 31379">
                        <g id="Group_31378" data-name="Group 31378">
                          <g id="Group_31377" data-name="Group 31377">
                            <g id="Group_31376" data-name="Group 31376">
                              <g id="Group_31375" data-name="Group 31375">
                                <g id="Group_31374" data-name="Group 31374">
                                  <g id="Group_31373" data-name="Group 31373">
                                    <g id="Group_31372" data-name="Group 31372">
                                      <g id="Group_31371" data-name="Group 31371">
                                        <g id="Group_31370" data-name="Group 31370">
                                          <g id="Group_31369" data-name="Group 31369">
                                            <g id="Group_31368" data-name="Group 31368">
                                              <g id="Group_31367" data-name="Group 31367">
                                                <g id="Group_31366" data-name="Group 31366">
                                                  <g id="Group_31365" data-name="Group 31365">
                                                    <path id="Path_17628" data-name="Path 17628" d="M165.669,295.126a1.642,1.642,0,0,1-1.556,1.686,1.572,1.572,0,0,1-1.72-1.451,1.644,1.644,0,0,1,1.554-1.687A1.573,1.573,0,0,1,165.669,295.126Z" transform="translate(-162.391 -293.669)" fill="#263238"/>
                                                  </g>
                                                </g>
                                              </g>
                                            </g>
                                          </g>
                                        </g>
                                      </g>
                                    </g>
                                  </g>
                                </g>
                              </g>
                            </g>
                          </g>
                        </g>
                      </g>
                    </g>
                  </g>
                  <g id="Group_31399" data-name="Group 31399" transform="translate(17.436 5.76)">
                    <g id="Group_31398" data-name="Group 31398">
                      <g id="Group_31397" data-name="Group 31397">
                        <g id="Group_31396" data-name="Group 31396">
                          <g id="Group_31395" data-name="Group 31395">
                            <g id="Group_31394" data-name="Group 31394">
                              <g id="Group_31393" data-name="Group 31393">
                                <g id="Group_31392" data-name="Group 31392">
                                  <g id="Group_31391" data-name="Group 31391">
                                    <g id="Group_31390" data-name="Group 31390">
                                      <g id="Group_31389" data-name="Group 31389">
                                        <g id="Group_31388" data-name="Group 31388">
                                          <g id="Group_31387" data-name="Group 31387">
                                            <g id="Group_31386" data-name="Group 31386">
                                              <g id="Group_31385" data-name="Group 31385">
                                                <g id="Group_31384" data-name="Group 31384">
                                                  <g id="Group_31383" data-name="Group 31383">
                                                    <g id="Group_31382" data-name="Group 31382">
                                                      <path id="Path_17629" data-name="Path 17629" d="M168.907,288.622c-.2.218-1.461-.682-3.23-.646-1.766.01-3.049.943-3.245.729-.1-.094.105-.485.663-.906a4.513,4.513,0,0,1,2.593-.849,4.337,4.337,0,0,1,2.575.782C168.815,288.141,169.006,288.524,168.907,288.622Z" transform="translate(-162.409 -286.95)" fill="#263238"/>
                                                    </g>
                                                  </g>
                                                </g>
                                              </g>
                                            </g>
                                          </g>
                                        </g>
                                      </g>
                                    </g>
                                  </g>
                                </g>
                              </g>
                            </g>
                          </g>
                        </g>
                      </g>
                    </g>
                  </g>
                  <g id="Group_31418" data-name="Group 31418" transform="translate(16.122)">
                    <g id="Group_31417" data-name="Group 31417">
                      <g id="Group_31416" data-name="Group 31416">
                        <g id="Group_31415" data-name="Group 31415">
                          <g id="Group_31414" data-name="Group 31414">
                            <g id="Group_31413" data-name="Group 31413">
                              <g id="Group_31412" data-name="Group 31412">
                                <g id="Group_31411" data-name="Group 31411">
                                  <g id="Group_31410" data-name="Group 31410">
                                    <g id="Group_31409" data-name="Group 31409">
                                      <g id="Group_31408" data-name="Group 31408">
                                        <g id="Group_31407" data-name="Group 31407">
                                          <g id="Group_31406" data-name="Group 31406">
                                            <g id="Group_31405" data-name="Group 31405">
                                              <g id="Group_31404" data-name="Group 31404">
                                                <g id="Group_31403" data-name="Group 31403">
                                                  <g id="Group_31402" data-name="Group 31402">
                                                    <g id="Group_31401" data-name="Group 31401">
                                                      <g id="Group_31400" data-name="Group 31400">
                                                        <path id="Path_17630" data-name="Path 17630" d="M167.9,283.2c-.342.408-1.714.015-3.354.024-1.641-.043-3.026.322-3.353-.093-.144-.2.068-.607.668-1a5.06,5.06,0,0,1,2.715-.706,5,5,0,0,1,2.689.761C167.851,282.59,168.049,283,167.9,283.2Z" transform="translate(-161.148 -281.426)" fill="#263238"/>
                                                      </g>
                                                    </g>
                                                  </g>
                                                </g>
                                              </g>
                                            </g>
                                          </g>
                                        </g>
                                      </g>
                                    </g>
                                  </g>
                                </g>
                              </g>
                            </g>
                          </g>
                        </g>
                      </g>
                    </g>
                  </g>
                </g>
              </g>
            </g>
            <g id="Group_31455" data-name="Group 31455" transform="translate(38.638 28.61)">
              <g id="Group_31437" data-name="Group 31437">
                <g id="Group_31436" data-name="Group 31436">
                  <g id="Group_31435" data-name="Group 31435">
                    <g id="Group_31434" data-name="Group 31434">
                      <g id="Group_31433" data-name="Group 31433">
                        <g id="Group_31432" data-name="Group 31432">
                          <g id="Group_31431" data-name="Group 31431">
                            <g id="Group_31430" data-name="Group 31430">
                              <g id="Group_31429" data-name="Group 31429">
                                <g id="Group_31428" data-name="Group 31428">
                                  <g id="Group_31427" data-name="Group 31427">
                                    <g id="Group_31426" data-name="Group 31426">
                                      <g id="Group_31425" data-name="Group 31425">
                                        <g id="Group_31424" data-name="Group 31424">
                                          <g id="Group_31423" data-name="Group 31423">
                                            <g id="Group_31422" data-name="Group 31422">
                                              <path id="Path_17631" data-name="Path 17631" d="M179.983,298.264c-.05-.953.928-3.26,1.861-3.46,2.492-.53,7.034-.577,7.427,5.8.536,8.724-8.333,7.463-8.363,7.214C180.884,307.629,180.155,301.556,179.983,298.264Z" transform="translate(-179.981 -294.588)" fill="#ffbf9d"/>
                                            </g>
                                          </g>
                                        </g>
                                      </g>
                                    </g>
                                  </g>
                                </g>
                              </g>
                            </g>
                          </g>
                        </g>
                      </g>
                    </g>
                  </g>
                </g>
              </g>
              <g id="Group_31454" data-name="Group 31454" transform="translate(3.13 2.896)">
                <g id="Group_31453" data-name="Group 31453">
                  <g id="Group_31452" data-name="Group 31452">
                    <g id="Group_31451" data-name="Group 31451">
                      <g id="Group_31450" data-name="Group 31450">
                        <g id="Group_31449" data-name="Group 31449">
                          <g id="Group_31448" data-name="Group 31448">
                            <g id="Group_31447" data-name="Group 31447">
                              <g id="Group_31446" data-name="Group 31446">
                                <g id="Group_31445" data-name="Group 31445">
                                  <g id="Group_31444" data-name="Group 31444">
                                    <g id="Group_31443" data-name="Group 31443">
                                      <g id="Group_31442" data-name="Group 31442">
                                        <g id="Group_31441" data-name="Group 31441">
                                          <g id="Group_31440" data-name="Group 31440">
                                            <g id="Group_31439" data-name="Group 31439">
                                              <g id="Group_31438" data-name="Group 31438">
                                                <path id="Path_17632" data-name="Path 17632" d="M182.99,304.371c.036-.031.158.1.422.2a1.523,1.523,0,0,0,1.138-.046c.9-.4,1.587-1.906,1.532-3.48a5.041,5.041,0,0,0-.558-2.151,1.758,1.758,0,0,0-1.216-1.095.774.774,0,0,0-.871.47c-.1.252-.036.423-.081.44-.023.024-.2-.133-.148-.5a.967.967,0,0,1,.31-.568,1.149,1.149,0,0,1,.827-.273,2.14,2.14,0,0,1,1.67,1.254,5.174,5.174,0,0,1,.677,2.4c.052,1.761-.747,3.462-1.985,3.9a1.634,1.634,0,0,1-1.4-.146C183.018,304.58,182.961,304.387,182.99,304.371Z" transform="translate(-182.983 -297.366)" fill="#ff9a6c"/>
                                              </g>
                                            </g>
                                          </g>
                                        </g>
                                      </g>
                                    </g>
                                  </g>
                                </g>
                              </g>
                            </g>
                          </g>
                        </g>
                      </g>
                    </g>
                  </g>
                </g>
              </g>
            </g>
          </g>
          <g id="Group_31458" data-name="Group 31458" transform="translate(14.078 5.579)">
            <g id="Group_31457" data-name="Group 31457">
              <path id="Path_17633" data-name="Path 17633" d="M183.315,296.057l-2.216,2.3c-9.572-9.161-28.276-32.1-27.232-30.732a27.865,27.865,0,0,1,13.673-1.484c7.117,1.212,20.615,4.774,20.408,13.168S183.315,296.057,183.315,296.057Z" transform="translate(-153.826 -265.826)" fill="#263238"/>
            </g>
          </g>
          <g id="Group_31459" data-name="Group 31459" transform="translate(15.67 5.368)">
            <path id="Path_17634" data-name="Path 17634" d="M195.926,294.14a2.286,2.286,0,0,0-.133-.5,8.727,8.727,0,0,0-.6-1.375,12.679,12.679,0,0,0-3.645-4.1,23.84,23.84,0,0,0-7.34-3.531c-2.917-.95-6.207-1.688-9.436-3.075a42.738,42.738,0,0,1-8.619-4.826,44.781,44.781,0,0,1-6.083-5.318,47.554,47.554,0,0,1-3.517-4.175c-.358-.49-.648-.888-.876-1.2a2.38,2.38,0,0,0-.327-.406,2.2,2.2,0,0,0,.252.456c.182.288.44.721.809,1.254a40.154,40.154,0,0,0,3.428,4.29,42.675,42.675,0,0,0,6.071,5.434,41.854,41.854,0,0,0,8.688,4.907,96.3,96.3,0,0,0,9.484,3.055,24.212,24.212,0,0,1,7.277,3.392,13.126,13.126,0,0,1,3.682,3.933C195.686,293.459,195.88,294.156,195.926,294.14Z" transform="translate(-155.353 -265.624)" fill="#455a64"/>
          </g>
          <g id="Group_31460" data-name="Group 31460" transform="translate(16.062 7.236)">
            <path id="Path_17635" data-name="Path 17635" d="M193.371,295.436a4.594,4.594,0,0,0-.339-1.906,8.9,8.9,0,0,0-3.278-4.107,19.738,19.738,0,0,0-7.279-2.854,43.1,43.1,0,0,1-9.046-2.87,38.349,38.349,0,0,1-8.064-4.979,39.414,39.414,0,0,1-5.528-5.433,41.732,41.732,0,0,1-3.082-4.237l-.74-1.222a2.138,2.138,0,0,0-.285-.412,2.077,2.077,0,0,0,.206.456c.175.334.4.753.669,1.268a35.457,35.457,0,0,0,2.986,4.347,37.583,37.583,0,0,0,13.652,10.619,42.136,42.136,0,0,0,9.139,2.865,19.907,19.907,0,0,1,7.189,2.71,9.005,9.005,0,0,1,3.3,3.911A10.454,10.454,0,0,1,193.371,295.436Z" transform="translate(-155.728 -267.416)" fill="#455a64"/>
          </g>
          <g id="Group_31462" data-name="Group 31462" transform="translate(43.28 8.193)">
            <g id="Group_31461" data-name="Group 31461">
              <path id="Path_17636" data-name="Path 17636" d="M181.833,310.719c-.008-.058.739-.155,2.031-.493a12.489,12.489,0,0,0,4.882-2.729,17.54,17.54,0,0,0,4.535-6.939,30.558,30.558,0,0,0,1.891-10.064,23.621,23.621,0,0,0-1.867-10.018,25.287,25.287,0,0,0-4.52-7.037,41.087,41.087,0,0,0-5.855-5.1,1.94,1.94,0,0,1,.483.251c.3.189.767.44,1.318.835a26.668,26.668,0,0,1,4.354,3.743,24.862,24.862,0,0,1,4.707,7.1,23.714,23.714,0,0,1,1.956,10.24,30.329,30.329,0,0,1-1.973,10.243,17.576,17.576,0,0,1-4.761,7.051,12.1,12.1,0,0,1-5.092,2.64,11.006,11.006,0,0,1-1.545.246A1.9,1.9,0,0,1,181.833,310.719Z" transform="translate(-181.833 -268.333)" fill="#455a64"/>
            </g>
          </g>
        </g>
        <g id="Group_31544" data-name="Group 31544" transform="translate(0 70.926)">
          <g id="Group_31464" data-name="Group 31464" transform="translate(47.984 86.97)">
            <path id="Path_17637" data-name="Path 17637" d="M197.091,411.911,145.5,419.4c-19.379,5.484-39.8,7.091-61.14,5.238L162,460.864l31.173.484s9.491.029,11.151-8.282c1.684-8.438,3.5-33.5,3.5-33.5S201.671,414.213,197.091,411.911Z" transform="translate(-84.356 -411.911)" fill="#263238"/>
          </g>
          <g id="Group_31467" data-name="Group 31467" transform="translate(159.438 98.585)" opacity="0.3">
            <g id="Group_31466" data-name="Group 31466">
              <g id="Group_31465" data-name="Group 31465">
                <path id="Path_17638" data-name="Path 17638" d="M192.38,433.154a75.171,75.171,0,0,1,.91,15.634,15.5,15.5,0,0,0,3.824-13.035c-.455-2.549-1.516-5.351-.181-7.571.9-1.489,3.262-3.2,2.917-4.9,0,0-2.074,0-3.955-.075-1.508-.06-4.646-.154-4.646-.154a16.583,16.583,0,0,1,.833,10.25" transform="translate(-191.25 -423.051)"/>
              </g>
            </g>
          </g>
          <g id="Group_31493" data-name="Group 31493" transform="translate(80.16)">
            <g id="Group_31469" data-name="Group 31469" transform="translate(37.383)">
              <g id="Group_31468" data-name="Group 31468">
                <path id="Path_17639" data-name="Path 17639" d="M157.472,331.207l25.069-2.707,4.587,4.177-17.9,10.52-7.895,4.089-7.8-2.368-2.47-4.647Z" transform="translate(-151.069 -328.499)" fill="#ffbf9d"/>
              </g>
            </g>
            <g id="Group_31492" data-name="Group 31492" transform="translate(0 0.111)">
              <g id="Group_31471" data-name="Group 31471" transform="translate(9.995)">
                <g id="Group_31470" data-name="Group 31470">
                  <path id="Path_17640" data-name="Path 17640" d="M124.8,361.726s7.857-15.08,9.8-18.375c3.316-5.616,9.5-8.8,9.5-8.8l14.484-3.35s-1.5,7.256,7.509,7.757c11.463.638,18.583-10.354,18.583-10.354s13.079,1.345,16.69,2.862S215.2,337.26,216.7,350.844l3.5,22.176-27.631,2.106.383,29.522-11.742,9.6s-33.714,11.61-35.867,12.371c-1.018.361-.769-13.966-3.179-26.243l-4.55-11.049a42.812,42.812,0,0,1-3.222-13.886c-.177-3.144-.091-5.522-.091-5.522S127.213,367.488,124.8,361.726Z" transform="translate(-124.802 -328.606)" fill="#455a64"/>
                </g>
              </g>
              <g id="Group_31491" data-name="Group 31491" transform="translate(0 44.722)">
                <g id="Group_31473" data-name="Group 31473" transform="translate(30.536)">
                  <g id="Group_31472" data-name="Group 31472">
                    <path id="Path_17641" data-name="Path 17641" d="M145.732,413.2l46.325-13.906-.328-26,23.591-1.8s-1.882,13.472-2.158,20.379c-.4,9.934-5.176,23.819-8.372,26.766s-60.289,6.151-60.289,6.151Z" transform="translate(-144.502 -371.498)" fill="#ffbf9d"/>
                  </g>
                </g>
                <g id="Group_31475" data-name="Group 31475" transform="translate(0.246 32.063)">
                  <g id="Group_31474" data-name="Group 31474">
                    <path id="Path_17642" data-name="Path 17642" d="M120.7,420.063a1.823,1.823,0,0,0,1.833.886,2.179,2.179,0,0,0,.449-.128c1.017-.415.754-2.53.754-2.53l4.931-1.2s6.818,3.685,9.343,6.282,8.244-.108,8.244-.108l1.219-10.8-9.834-7.6s.6.453-.152-1.054-3.6-.693-3.6-.693c-.51-.734-2.417-.864-2.417-.864l-7.991,1.554a5.542,5.542,0,0,0-3.842,2.852l-2.991,5.661s-1.5,4.025-1.141,4.906a1.619,1.619,0,0,0,1.961.914s.593,2.523,1.271,2.561a5.524,5.524,0,0,0,1.959-.633Z" transform="translate(-115.452 -402.249)" fill="#ffbf9d"/>
                  </g>
                </g>
                <g id="Group_31478" data-name="Group 31478" transform="translate(6.924 40.773)">
                  <g id="Group_31477" data-name="Group 31477">
                    <g id="Group_31476" data-name="Group 31476">
                      <path id="Path_17643" data-name="Path 17643" d="M136.992,410.733c0,.084-1.082.069-2.8.276a24.488,24.488,0,0,0-6.483,1.741,23.389,23.389,0,0,0-3.28,1.713c-.932.624-1.913,1.153-2.171,1.887a.984.984,0,0,0,.163.954,1.368,1.368,0,0,0,.649.467,2.129,2.129,0,0,0,.714.049c.021.01-.233.241-.765.145a1.512,1.512,0,0,1-.82-.478,1.291,1.291,0,0,1-.288-1.247,2.579,2.579,0,0,1,.915-1.21c.416-.321.853-.651,1.345-.967a21.169,21.169,0,0,1,9.986-3.417A9.282,9.282,0,0,1,136.992,410.733Z" transform="translate(-121.857 -410.603)" fill="#ff9a6c"/>
                    </g>
                  </g>
                </g>
                <g id="Group_31481" data-name="Group 31481" transform="translate(8.462 45.892)">
                  <g id="Group_31480" data-name="Group 31480">
                    <g id="Group_31479" data-name="Group 31479">
                      <path id="Path_17644" data-name="Path 17644" d="M137.892,415.62c0,.153-3.29.271-7.3.818s-7.22,1.293-7.258,1.145a8.057,8.057,0,0,1,2.059-.672,47.239,47.239,0,0,1,10.336-1.394A8.1,8.1,0,0,1,137.892,415.62Z" transform="translate(-123.332 -415.512)" fill="#ff9a6c"/>
                    </g>
                  </g>
                </g>
                <g id="Group_31484" data-name="Group 31484" transform="translate(5.167 36.425)">
                  <g id="Group_31483" data-name="Group 31483">
                    <g id="Group_31482" data-name="Group 31482">
                      <path id="Path_17645" data-name="Path 17645" d="M120.528,419.676a3.7,3.7,0,0,1-.168-.851,18.865,18.865,0,0,1-.188-2.361,10.127,10.127,0,0,1,.1-1.653,5.008,5.008,0,0,1,.656-1.817,11.055,11.055,0,0,1,2.782-3.328,15.242,15.242,0,0,1,3.706-2.248,13.954,13.954,0,0,1,3.441-.8c.995-.113,1.8-.153,2.355-.175a2.866,2.866,0,0,1,.869.021,26.276,26.276,0,0,1-3.173.515,15.153,15.153,0,0,0-3.316.879,15.893,15.893,0,0,0-3.558,2.207,11.1,11.1,0,0,0-2.694,3.166,6.135,6.135,0,0,0-.8,3.236C120.494,418.435,120.639,419.671,120.528,419.676Z" transform="translate(-120.171 -406.433)" fill="#ff9a6c"/>
                    </g>
                  </g>
                </g>
                <g id="Group_31487" data-name="Group 31487" transform="translate(2.42 34.105)">
                  <g id="Group_31486" data-name="Group 31486">
                    <g id="Group_31485" data-name="Group 31485">
                      <path id="Path_17646" data-name="Path 17646" d="M131.153,404.245c.006.076-1.2.2-3.107.572-1.833.429-4.791.793-6.284,3.481a27.52,27.52,0,0,0-3.579,6.64,16.322,16.322,0,0,0-.529,3.077,2.218,2.218,0,0,1-.114-.851,8.125,8.125,0,0,1,.292-2.326,24.037,24.037,0,0,1,3.5-6.829,8.871,8.871,0,0,1,1.444-1.706,5.742,5.742,0,0,1,1.828-1.037,17.306,17.306,0,0,1,3.375-.807A12.256,12.256,0,0,1,131.153,404.245Z" transform="translate(-117.537 -404.208)" fill="#ff9a6c"/>
                    </g>
                  </g>
                </g>
                <g id="Group_31490" data-name="Group 31490" transform="translate(0 31.832)">
                  <g id="Group_31489" data-name="Group 31489">
                    <g id="Group_31488" data-name="Group 31488">
                      <path id="Path_17647" data-name="Path 17647" d="M136.122,421.8a2.9,2.9,0,0,1-.507-.328l-1.434-.98a56.667,56.667,0,0,0-5.581-3.24l.116.014-4.922,1.236.154-.224a5.55,5.55,0,0,1,0,1.227,2.28,2.28,0,0,1-.473,1.245,1.245,1.245,0,0,1-.639.355,1.74,1.74,0,0,1-.7.1,2.046,2.046,0,0,1-1.295-.591,2.108,2.108,0,0,1-.24-.278l-.052-.076-.025-.039-.014-.02v0c-.067-.02.573.16.3.084l-.005,0-.01.005-.153.077c-.2.1-.412.192-.627.278a5.74,5.74,0,0,1-.67.223,2.509,2.509,0,0,1-.368.069.842.842,0,0,1-.469-.053,1.49,1.49,0,0,1-.54-.622,5.356,5.356,0,0,1-.3-.667,12.036,12.036,0,0,1-.43-1.388l.307.179a1.9,1.9,0,0,1-1.909-.491,1.542,1.542,0,0,1-.42-.978,4.432,4.432,0,0,1,.1-.979,26.9,26.9,0,0,1,1.1-3.7l.005-.014.008-.017c.509-.963,1.049-1.985,1.594-3.021l1.012-1.913a9.883,9.883,0,0,1,1.128-1.865,5.4,5.4,0,0,1,1.716-1.342,6.994,6.994,0,0,1,2.023-.586l7.534-1.443.031-.006.027,0a7.043,7.043,0,0,1,1.361.248,2.276,2.276,0,0,1,1.22.719l-.286-.066a2.794,2.794,0,0,1,2.6-.055,3.264,3.264,0,0,1,1.439,1.941l-.069-.1c2.824,2.17,5.128,3.939,6.775,5.206l1.829,1.44a4.511,4.511,0,0,1,.615.533,4.607,4.607,0,0,1-.682-.444l-1.889-1.359-6.878-5.07-.046-.034-.023-.067a2.891,2.891,0,0,0-1.267-1.685,2.383,2.383,0,0,0-2.19.075l-.171.088-.116-.153a1.919,1.919,0,0,0-.987-.539,6.717,6.717,0,0,0-1.266-.22l.058,0L124,403.968a6.549,6.549,0,0,0-1.893.549,4.871,4.871,0,0,0-1.55,1.218,9.443,9.443,0,0,0-1.065,1.776q-.5.949-1.01,1.913c-.547,1.034-1.087,2.057-1.6,3.02l.014-.03a26.685,26.685,0,0,0-1.083,3.613,4.074,4.074,0,0,0-.1.864,1.045,1.045,0,0,0,.291.665,1.41,1.41,0,0,0,1.4.352l.249-.06.058.24a11.809,11.809,0,0,0,.4,1.328,2.448,2.448,0,0,0,.6,1.038.472.472,0,0,0,.205.006,2.032,2.032,0,0,0,.3-.055,5.206,5.206,0,0,0,.614-.2c.2-.079.4-.167.6-.26l.144-.071.008,0,0,0c-.27-.076.371.1.305.084v0l.01.016.02.03.04.06a1.742,1.742,0,0,0,.188.221,1.6,1.6,0,0,0,1.005.471,1.33,1.33,0,0,0,.546-.074.819.819,0,0,0,.441-.226,3.138,3.138,0,0,0,.385-2.128l-.014-.184.169-.041,4.938-1.168.064-.015.053.028a48.114,48.114,0,0,1,5.534,3.391c.616.444,1.08.8,1.387,1.056A2.868,2.868,0,0,1,136.122,421.8Z" transform="translate(-115.216 -402.028)" fill="#ff9a6c"/>
                    </g>
                  </g>
                </g>
              </g>
            </g>
          </g>
          <g id="Group_31527" data-name="Group 31527" transform="translate(0 82.744)">
            <g id="Group_31507" data-name="Group 31507" transform="translate(0 0.24)">
              <g id="Group_31495" data-name="Group 31495" transform="translate(0 4.21)">
                <g id="Group_31494" data-name="Group 31494">
                  <path id="Path_17648" data-name="Path 17648" d="M115.325,428.072s-32.688-10.271-42.956-13.6c-17.677-5.73-29.25.062-32.9,6.386-4.736,8.208,6.621,24.209,10.995,27.887,12.962,10.9,35.18,12.367,35.18,12.367h0l79.889-.15-23.326-31.626Z" transform="translate(-38.335 -412.127)" fill="#263238"/>
                </g>
              </g>
              <g id="Group_31501" data-name="Group 31501" transform="translate(23.702 26.629)">
                <g id="Group_31497" data-name="Group 31497">
                  <g id="Group_31496" data-name="Group 31496">
                    <path id="Path_17649" data-name="Path 17649" d="M119.245,441.983a79.7,79.7,0,0,1-39.214-5.334,50.356,50.356,0,0,0-6.549-2.435,19.136,19.136,0,0,0-6.745-.476c-1.784.192-3.682.727-4.765,2.156-1.593,2.1-.774,5.088.112,7.573,1.037,2.912,2.117,5.9,4.145,8.232,2.372,2.728,5.812,4.287,9.26,5.374,6.745,2.125,13.869,2.734,20.937,3.015l24.278-1.328Z" transform="translate(-61.067 -433.628)" fill="#e0e0e0"/>
                  </g>
                </g>
                <g id="Group_31500" data-name="Group 31500" transform="translate(6.019 0.596)">
                  <g id="Group_31499" data-name="Group 31499">
                    <g id="Group_31498" data-name="Group 31498">
                      <path id="Path_17650" data-name="Path 17650" d="M72.122,434.2c.029-.014.171.213.372.652a10.582,10.582,0,0,1,.642,1.939,12.571,12.571,0,0,1-3.96,12.315,10.561,10.561,0,0,1-1.653,1.2,1.944,1.944,0,0,1-.682.313c-.049-.076.877-.6,2.088-1.78a13.2,13.2,0,0,0,3.852-11.976C72.482,435.2,72.038,434.234,72.122,434.2Z" transform="translate(-66.84 -434.199)" fill="#263238"/>
                    </g>
                  </g>
                </g>
              </g>
              <g id="Group_31503" data-name="Group 31503" transform="translate(76.291)">
                <g id="Group_31502" data-name="Group 31502">
                  <path id="Path_17651" data-name="Path 17651" d="M195.63,426.242c-1.9-5.377-2.214-13.282-13.915-17.078s-20.556,3.478-26.565,6.009-38.9,20.556-38.9,20.556-6.193,11.045-4.429,15.918,9.774,9.7,9.774,9.7h36.772c9.487,0,27.142-.317,27.142-.317a109.146,109.146,0,0,0,6.325-12.018l.317-1.581C192.152,446.166,197.527,431.618,195.63,426.242Z" transform="translate(-111.505 -408.089)" fill="#263238"/>
                </g>
              </g>
              <g id="Group_31506" data-name="Group 31506" transform="translate(86.381 46.087)">
                <g id="Group_31505" data-name="Group 31505">
                  <g id="Group_31504" data-name="Group 31504">
                    <path id="Path_17652" data-name="Path 17652" d="M174.844,452.291a1.1,1.1,0,0,1-.271.5,6.545,6.545,0,0,1-1.211,1.091,31.291,31.291,0,0,1-5.2,2.913,33.531,33.531,0,0,1-3.839,1.509,27.713,27.713,0,0,1-4.635,1,89.054,89.054,0,0,1-10.8.423c-7.651.123-14.582.41-19.606.353-2.512-.018-4.546-.12-5.945-.265a16.117,16.117,0,0,1-1.6-.226,2.389,2.389,0,0,1-.549-.13c.008-.053.773.083,2.171.157s3.423.13,5.929.1c5.012-.036,11.935-.381,19.6-.5a94.826,94.826,0,0,0,10.749-.38,27.984,27.984,0,0,0,4.571-.939,40.342,40.342,0,0,0,9.048-4.179,7.758,7.758,0,0,0,1.247-.994C174.756,452.467,174.813,452.277,174.844,452.291Z" transform="translate(-121.182 -452.29)" fill="#263238"/>
                  </g>
                </g>
              </g>
            </g>
            <g id="Group_31510" data-name="Group 31510" transform="translate(76.233)">
              <g id="Group_31509" data-name="Group 31509">
                <g id="Group_31508" data-name="Group 31508">
                  <path id="Path_17653" data-name="Path 17653" d="M121.6,461.356s-.172-.076-.487-.259-.776-.465-1.369-.853a33.049,33.049,0,0,1-4.835-3.845,14.99,14.99,0,0,1-2.736-3.527,8.134,8.134,0,0,1-.539-5.231,43.864,43.864,0,0,1,4.445-12l.026-.05.054-.03c6.02-3.313,12.93-7.084,20.481-11.138,3.778-2.023,7.713-4.118,11.8-6.228,2.048-1.048,4.112-2.124,6.282-3.1,2.159-.916,4.224-2.116,6.381-3.215a35.927,35.927,0,0,1,9.5-3.573,23.03,23.03,0,0,1,4.949-.454,22.277,22.277,0,0,1,4.817.692,22.894,22.894,0,0,1,8.424,4.023,16.7,16.7,0,0,1,3.061,3.316,19.279,19.279,0,0,1,1.977,3.89c.515,1.334.889,2.683,1.264,3.992a32.979,32.979,0,0,1,1.052,3.9,25.62,25.62,0,0,1-.628,7.519c-.474,2.344-1.054,4.532-1.633,6.575q-.446,1.526-.861,2.955a27.128,27.128,0,0,0-.723,2.723l0,.029c-.123.6-.224,1.095-.323,1.58l0,.008v0a38.43,38.43,0,0,1-4.224,9.163,15.967,15.967,0,0,1-2.238,2.814,1.148,1.148,0,0,1,.138-.189l.435-.531a24.66,24.66,0,0,0,1.538-2.176,39.686,39.686,0,0,0,4.079-9.161l0,.011c.6-.5.482-.992.31-1.583l0,.029a24.751,24.751,0,0,1,.712-2.813l.838-2.958c.563-2.043,1.128-4.227,1.587-6.557a25.435,25.435,0,0,0,.586-7.389,33.138,33.138,0,0,0-1.054-3.83c-.381-1.312-.756-2.645-1.266-3.953a18.815,18.815,0,0,0-1.939-3.788,16.288,16.288,0,0,0-2.976-3.207,22.494,22.494,0,0,0-8.245-3.913,21.823,21.823,0,0,0-4.708-.67,22.565,22.565,0,0,0-4.838.448,35.559,35.559,0,0,0-9.369,3.53c-2.144,1.091-4.222,2.3-6.412,3.227-2.137.959-4.212,2.036-6.255,3.079-4.082,2.1-8.02,4.192-11.8,6.206l-20.516,11.062.08-.08a43.925,43.925,0,0,0-4.481,11.859,7.853,7.853,0,0,0,.468,5.054,14.887,14.887,0,0,0,2.65,3.493,35.22,35.22,0,0,0,4.741,3.908l1.335.9C121.445,461.245,121.6,461.356,121.6,461.356Z" transform="translate(-111.449 -407.858)" fill="#263238"/>
                </g>
              </g>
            </g>
            <g id="Group_31514" data-name="Group 31514" transform="translate(121.883 37.25)">
              <g id="Group_31511" data-name="Group 31511" transform="translate(0 2.607)">
                <path id="Path_17654" data-name="Path 17654" d="M179.58,446.084s10.953,1.306,9.979,6.671-4.553,7.164-4.553,7.164l-29.775.064S173.011,458.744,179.58,446.084Z" transform="translate(-155.231 -446.084)" fill="#e0e0e0"/>
              </g>
              <g id="Group_31513" data-name="Group 31513" transform="translate(19.109)">
                <g id="Group_31512" data-name="Group 31512">
                  <path id="Path_17655" data-name="Path 17655" d="M179.86,443.585a3.819,3.819,0,0,1-.333,1.521,11.852,11.852,0,0,1-1.777,3.32,8.923,8.923,0,0,1-4.189,3.21,24.466,24.466,0,0,0,3.784-3.522C179.082,445.844,179.693,443.522,179.86,443.585Z" transform="translate(-173.558 -443.584)" fill="#263238"/>
                </g>
              </g>
            </g>
            <g id="Group_31517" data-name="Group 31517" transform="translate(140.035 39.356)">
              <g id="Group_31516" data-name="Group 31516">
                <g id="Group_31515" data-name="Group 31515">
                  <path id="Path_17656" data-name="Path 17656" d="M176.1,445.6a7.2,7.2,0,0,1-1.057,3.815,8.441,8.441,0,0,1-2.389,3.157c-.117-.1.962-1.482,1.932-3.391C175.582,447.289,175.955,445.582,176.1,445.6Z" transform="translate(-172.641 -445.604)" fill="#263238"/>
                </g>
              </g>
            </g>
            <g id="Group_31520" data-name="Group 31520" transform="translate(157.461 25.697)">
              <g id="Group_31519" data-name="Group 31519">
                <g id="Group_31518" data-name="Group 31518">
                  <path id="Path_17657" data-name="Path 17657" d="M189.36,459c-.081-.042.622-1.4,1.483-3.7A39.284,39.284,0,0,0,193,436.444c-.319-2.437-.7-3.918-.609-3.94a4.4,4.4,0,0,1,.344,1.02,25.273,25.273,0,0,1,.622,2.867,35.286,35.286,0,0,1-2.176,19.041,25.406,25.406,0,0,1-1.253,2.654A4.3,4.3,0,0,1,189.36,459Z" transform="translate(-189.354 -432.504)" fill="#455a64"/>
                </g>
              </g>
            </g>
            <g id="Group_31523" data-name="Group 31523" transform="translate(122.712 35.225)" opacity="0.3">
              <g id="Group_31522" data-name="Group 31522">
                <g id="Group_31521" data-name="Group 31521">
                  <path id="Path_17658" data-name="Path 17658" d="M184.583,443.383c-.077-.722-.363-1.576-1.074-1.72-.866-.177-1.462.82-1.813,1.632-3.775,8.733-16.2,15.535-25.67,16.414a87.277,87.277,0,0,0,13.754-1.122,20.942,20.942,0,0,0,10.489-4.8A12.693,12.693,0,0,0,184.583,443.383Z" transform="translate(-156.026 -441.642)"/>
                </g>
              </g>
            </g>
            <g id="Group_31526" data-name="Group 31526" transform="translate(68.386 20.594)">
              <g id="Group_31525" data-name="Group 31525">
                <g id="Group_31524" data-name="Group 31524">
                  <path id="Path_17659" data-name="Path 17659" d="M114.258,432.1a31.211,31.211,0,0,1-5.27-2,31.088,31.088,0,0,1-5.064-2.473,31.132,31.132,0,0,1,5.271,2.005A31.1,31.1,0,0,1,114.258,432.1Z" transform="translate(-103.923 -427.61)" fill="#263238"/>
                </g>
              </g>
            </g>
          </g>
          <g id="Group_31529" data-name="Group 31529" transform="translate(36.009 95.996)" opacity="0.2">
            <g id="Group_31528" data-name="Group 31528">
              <path id="Path_17660" data-name="Path 17660" d="M126.2,427.8q-21.266-4.066-42.693-7.23l-10.64,3.365c2.982,5.545,8.875,9.075,15,10.54s12.523,1.112,18.793.534c6.9-.635,13.995-1.6,20-5.062.46-.264.973-.659.918-1.187C127.518,428.16,126.8,427.911,126.2,427.8Z" transform="translate(-72.87 -420.568)"/>
            </g>
          </g>
          <g id="Group_31540" data-name="Group 31540" transform="translate(19.352 58.697)">
            <g id="Group_31534" data-name="Group 31534">
              <g id="Group_31533" data-name="Group 31533">
                <g id="Group_31530" data-name="Group 31530" transform="translate(0.032 0.073)">
                  <path id="Path_17661" data-name="Path 17661" d="M57.067,387.081,74.932,426.6a4.626,4.626,0,0,0,4.155,2.719l52.108.676,6.569-3.536-10.287-.753-16.012-38.428a3.312,3.312,0,0,0-3.031-2.037l-49.926-.379A1.569,1.569,0,0,0,57.067,387.081Z" transform="translate(-56.926 -384.865)" fill="#e0e0e0"/>
                </g>
                <g id="Group_31532" data-name="Group 31532">
                  <g id="Group_31531" data-name="Group 31531">
                    <path id="Path_17662" data-name="Path 17662" d="M57.068,387.084a1.19,1.19,0,0,1-.157-.476,1.6,1.6,0,0,1,1.5-1.8l1.311-.009h3.265l20.91.069,14.528.074,8.123.047,2.13.021a3.576,3.576,0,0,1,2.089.88,4.494,4.494,0,0,1,1.195,1.923q.424,1.01.851,2.034L127.746,425.6l-.247-.178,9.934.726.352.026,1,.073-.882.475-6.57,3.535-.067.036h-.075l-39.521-.541-8.82-.127c-1.438-.033-2.812-.016-4.24-.089a4.873,4.873,0,0,1-3.535-2.184c-2.326-4.892-4.269-9.42-6.154-13.56l-8.736-19.547c-1.009-2.287-1.794-4.067-2.339-5.3-.254-.59-.451-1.048-.594-1.382-.131-.312-.185-.478-.185-.478s.089.149.237.455l.644,1.359,2.435,5.258,8.9,19.472c1.893,4.1,3.907,8.71,6.184,13.469a4.4,4.4,0,0,0,3.195,1.958c1.335.061,2.777.044,4.195.071l8.82.1,39.521.484-.142.035,6.569-3.537.117.547-.352-.025L127.456,426l-.178-.013-.069-.166-14.876-35.781q-.425-1.024-.846-2.036a4,4,0,0,0-1.056-1.739,3.07,3.07,0,0,0-1.791-.76l-2.095-.027-8.123-.077-14.528-.145-20.909-.248-3.265-.05-1.3-.017a1.492,1.492,0,0,0-.944.38,1.551,1.551,0,0,0-.508,1.278A3.635,3.635,0,0,0,57.068,387.084Z" transform="translate(-56.895 -384.795)" fill="#263238"/>
                  </g>
                </g>
              </g>
            </g>
            <g id="Group_31537" data-name="Group 31537" transform="translate(50.74 0.445)">
              <g id="Group_31536" data-name="Group 31536">
                <g id="Group_31535" data-name="Group 31535">
                  <path id="Path_17663" data-name="Path 17663" d="M123.869,429.914a1.834,1.834,0,0,1-.24-.431c-.161-.346-.357-.767-.594-1.276l-2.094-4.735c-1.742-4.009-4.108-9.563-6.654-15.727s-4.792-11.773-6.351-15.857c-.776-2.044-1.4-3.7-1.8-4.857-.18-.532-.331-.973-.453-1.334a1.791,1.791,0,0,1-.125-.476,1.788,1.788,0,0,1,.222.441c.147.351.325.78.542,1.3l1.946,4.794,6.487,15.8c2.531,6.129,4.819,11.675,6.515,15.782.8,1.97,1.455,3.591,1.944,4.8l.506,1.314A1.737,1.737,0,0,1,123.869,429.914Z" transform="translate(-105.56 -385.222)" fill="#263238"/>
                </g>
              </g>
            </g>
            <g id="Group_31539" data-name="Group 31539" transform="translate(31.613 18.894)">
              <g id="Group_31538" data-name="Group 31538">
                <path id="Path_17664" data-name="Path 17664" d="M92.325,405.47a2.555,2.555,0,1,1-2.556-2.555A2.555,2.555,0,0,1,92.325,405.47Z" transform="translate(-87.215 -402.916)" fill="#fff"/>
              </g>
            </g>
          </g>
          <g id="Group_31541" data-name="Group 31541" transform="translate(99.179 16.574)">
            <path id="Path_17665" data-name="Path 17665" d="M141.086,344.4c.079.044-.671,1.45-1.726,3.79A65.544,65.544,0,0,0,134,367.414c-.31,2.548-.4,4.139-.486,4.136a4.342,4.342,0,0,1-.055-1.122c0-.723.043-1.767.149-3.055a54.538,54.538,0,0,1,5.4-19.355c.576-1.156,1.076-2.075,1.453-2.69A4.3,4.3,0,0,1,141.086,344.4Z" transform="translate(-133.456 -344.395)" fill="#263238"/>
          </g>
          <g id="Group_31542" data-name="Group 31542" transform="translate(154.435 4.194)">
            <path id="Path_17666" data-name="Path 17666" d="M217.571,372.853a2.572,2.572,0,0,1-.571.089l-1.66.164-6.192.518-21.177,1.6-.273.021-.017-.273c-.177-2.812-.365-5.782-.558-8.834-.3-5.317-.557-10.383-.639-15a21.268,21.268,0,0,1,2.717-11.9,14.666,14.666,0,0,1,5.936-5.705,11.861,11.861,0,0,1,2.1-.819,4.147,4.147,0,0,1,.763-.186c.025.076-1.05.294-2.765,1.2a14.841,14.841,0,0,0-5.7,5.712A21.1,21.1,0,0,0,187,351.12c.111,4.6.382,9.668.682,14.98.188,3.052.37,6.019.542,8.83l-.29-.252,21.191-1.4,6.2-.359,1.666-.072A2.592,2.592,0,0,1,217.571,372.853Z" transform="translate(-186.451 -332.522)" fill="#263238"/>
          </g>
          <g id="Group_31543" data-name="Group 31543" transform="translate(121.776 42.269)">
            <path id="Path_17667" data-name="Path 17667" d="M166.959,389.354a3.322,3.322,0,0,1-.926-.34A7.453,7.453,0,0,1,165,388.5a12.576,12.576,0,0,1-1.309-.8,18.882,18.882,0,0,1-3.05-2.588,20.207,20.207,0,0,1-4.812-8.462,18.781,18.781,0,0,1-.664-3.944,12.651,12.651,0,0,1-.021-1.536,7.568,7.568,0,0,1,.083-1.154,3.315,3.315,0,0,1,.181-.97c.111.01-.071,1.4.149,3.627a20.865,20.865,0,0,0,.765,3.833,21.246,21.246,0,0,0,4.693,8.255,20.778,20.778,0,0,0,2.9,2.617C165.716,388.7,167.007,389.255,166.959,389.354Z" transform="translate(-155.129 -369.039)" fill="#263238"/>
          </g>
        </g>
      </g>
    </g>
  </g>
</svg>
