<svg xmlns="http://www.w3.org/2000/svg" xmlns:xlink="http://www.w3.org/1999/xlink" width="517.148" height="306.408" viewBox="0 0 517.148 306.408">
  <defs>
    <linearGradient id="linear-gradient" y1="0.5" x2="1" y2="0.5" gradientUnits="objectBoundingBox">
      <stop offset="0" stop-color="#0093aa"/>
      <stop offset="1" stop-color="#00bfdc"/>
    </linearGradient>
  </defs>
  <g id="Group_30662" data-name="Group 30662" transform="translate(-336.712 -132.094)">
    <g id="Group_30646" data-name="Group 30646" transform="translate(336.712 132.094)">
      <ellipse id="Ellipse_834" data-name="Ellipse 834" cx="244.883" cy="13.136" rx="244.883" ry="13.136" transform="translate(0 235.038)" opacity="0.5" fill="url(#linear-gradient)" style="mix-blend-mode: multiply;isolation: isolate"/>
      <g id="Group_30645" data-name="Group 30645" transform="translate(40.74)">
        <g id="Group_30636" data-name="Group 30636">
          <path id="Rectangle_2767" data-name="Rectangle 2767" d="M11.279,0H350.836a11.279,11.279,0,0,1,11.279,11.279V225.767a0,0,0,0,1,0,0H0a0,0,0,0,1,0,0V11.279A11.279,11.279,0,0,1,11.279,0Z" transform="translate(32.938)" fill="#e4f0f8"/>
          <rect id="Rectangle_2768" data-name="Rectangle 2768" width="320.416" height="185.179" transform="translate(53.788 20.294)" fill="#fff"/>
          <g id="Group_30626" data-name="Group 30626" transform="translate(0 225.766)">
            <path id="Path_16998" data-name="Path 16998" d="M767.717,295.385H384.542a22.408,22.408,0,0,1-22.408-22.408H790.125A22.408,22.408,0,0,1,767.717,295.385Z" transform="translate(-362.134 -272.977)" fill="#d1e2ea"/>
            <rect id="Rectangle_2769" data-name="Rectangle 2769" width="61.726" height="6.765" transform="translate(183.132 0)" fill="#b3c5cd"/>
          </g>
          <g id="Group_30629" data-name="Group 30629" transform="translate(53.788 20.294)">
            <g id="Group_30627" data-name="Group 30627">
              <rect id="Rectangle_2770" data-name="Rectangle 2770" width="320.416" height="20.294" fill="#0071b8"/>
              <rect id="Rectangle_2771" data-name="Rectangle 2771" width="122.079" height="10.253" transform="translate(180.426 5.02)" fill="#009fda"/>
            </g>
            <g id="Group_30628" data-name="Group 30628" transform="translate(5.922 5.073)">
              <path id="Path_16999" data-name="Path 16999" d="M409.541,153a5.074,5.074,0,1,1-5.074-5.074A5.074,5.074,0,0,1,409.541,153Z" transform="translate(-399.394 -147.923)" fill="#ff582a"/>
              <path id="Path_17000" data-name="Path 17000" d="M419.105,153a5.074,5.074,0,1,1-5.074-5.074A5.074,5.074,0,0,1,419.105,153Z" transform="translate(-393.632 -147.923)" fill="#ffd524"/>
              <path id="Path_17001" data-name="Path 17001" d="M428.668,153a5.074,5.074,0,1,1-5.073-5.074A5.073,5.073,0,0,1,428.668,153Z" transform="translate(-387.87 -147.923)" fill="#00d6cd"/>
            </g>
          </g>
          <g id="Group_30635" data-name="Group 30635" transform="translate(71.623 56.125)">
            <g id="Group_30633" data-name="Group 30633">
              <rect id="Rectangle_2772" data-name="Rectangle 2772" width="189.936" height="134.849" fill="#e4f0f8"/>
              <g id="Group_30630" data-name="Group 30630" transform="translate(109.423 11.405)">
                <path id="Path_17002" data-name="Path 17002" d="M504.1,174.744c-16.012,0-28.985,13.4-28.985,29.93s12.972,29.919,28.985,29.919a28.72,28.72,0,0,0,24.063-13.251L504.1,204.674Z" transform="translate(-475.111 -173.927)" fill="#00d6cd"/>
                <path id="Path_17003" data-name="Path 17003" d="M497.335,174.234v25.882l20.807,14.411a26.344,26.344,0,0,0,4.245-14.411C522.387,185.819,511.169,174.234,497.335,174.234Z" transform="translate(-461.721 -174.234)" fill="#ff582a"/>
              </g>
              <g id="Group_30631" data-name="Group 30631" transform="translate(205.473)">
                <rect id="Rectangle_2773" data-name="Rectangle 2773" width="33.453" height="33.453" fill="#e4f0f8"/>
                <rect id="Rectangle_2774" data-name="Rectangle 2774" width="33.453" height="33.453" transform="translate(45.819)" fill="#e4f0f8"/>
              </g>
              <g id="Group_30632" data-name="Group 30632" transform="translate(205.473 45.026)">
                <rect id="Rectangle_2775" data-name="Rectangle 2775" width="33.453" height="33.453" fill="#e4f0f8"/>
                <rect id="Rectangle_2776" data-name="Rectangle 2776" width="33.453" height="33.453" transform="translate(45.819)" fill="#e4f0f8"/>
              </g>
            </g>
            <g id="Group_30634" data-name="Group 30634" transform="translate(205.473 87.199)">
              <rect id="Rectangle_2777" data-name="Rectangle 2777" width="79.272" height="5.074" fill="#e4f0f8"/>
              <rect id="Rectangle_2778" data-name="Rectangle 2778" width="29.821" height="5.074" transform="translate(0 10.644)" fill="#e4f0f8"/>
              <rect id="Rectangle_2779" data-name="Rectangle 2779" width="79.272" height="5.074" transform="translate(0 21.288)" fill="#e4f0f8"/>
              <rect id="Rectangle_2780" data-name="Rectangle 2780" width="59.642" height="5.073" transform="translate(0 31.932)" fill="#e4f0f8"/>
              <rect id="Rectangle_2781" data-name="Rectangle 2781" width="44.634" height="5.073" transform="translate(0 42.576)" fill="#e4f0f8"/>
            </g>
          </g>
        </g>
        <g id="Group_30643" data-name="Group 30643" transform="translate(90.361 39.642)">
          <g id="Group_30641" data-name="Group 30641" transform="translate(0 5.647)">
            <g id="Group_30637" data-name="Group 30637" transform="translate(54.767 31.648)">
              <path id="Path_17004" data-name="Path 17004" d="M521.369,230.522c-1.048,1.006-12.046.593-12.046.593s-46.088,1.978-48.219.87S452.7,214.07,452.7,214.07l15.392-6.239,3.378,10.642,37.274,4.1,1.428-.925a23.772,23.772,0,0,1,3.453-3.711c1.2-.784,8.484-2.159,9-2.183,0,0,2.639,2.633,2.929,3.724a11.176,11.176,0,0,1-.014,3.923c-.155.285-2.12,2.513-2.12,2.513S523.009,228.947,521.369,230.522Z" transform="translate(-452.697 -163.398)" fill="#fff"/>
              <path id="Path_17005" data-name="Path 17005" d="M492.049,243.478a1.738,1.738,0,0,1-.308-2.4L537.186,180.1l1.9,1.016-44.54,62.015a1.739,1.739,0,0,1-2.5.343Z" transform="translate(-429.38 -180.104)" fill="#00415c"/>
              <path id="Path_17006" data-name="Path 17006" d="M495.554,214.069s8,1.825,7.389,3.032a5.269,5.269,0,0,1-3.588,2.2c-.625-.136-3.6-.312-3.6-.312s-1.795,4.864-3.782,4.982-3.336-2.42-3.336-2.42l5.279-6.468Z" transform="translate(-431.045 -159.64)" fill="#fff"/>
            </g>
            <path id="Path_17007" data-name="Path 17007" d="M466.5,184.96s15.08,19.145,14.679,26.8c-1,19.161-2.159,51.564-2.159,51.564s7.771,18.134,10.362,28.494h-63.44s8.178-29.789,8.394-31.733-8.394-42.263-8.394-42.263l2.8-29.565a44.62,44.62,0,0,1,11.871-4.072c4.638-.792,10.012.729,13.3,2.436C453.918,186.617,455.065,183.487,466.5,184.96Z" transform="translate(-414.047 -146.129)" fill="#ffc32e"/>
            <g id="Group_30640" data-name="Group 30640" transform="translate(23.829)">
              <g id="Group_30638" data-name="Group 30638" transform="translate(2.739 35.951)">
                <path id="Path_17008" data-name="Path 17008" d="M450.588,184.836l4.281,1.323,4.107,11.814-8.889-3.67-7.831,5.529L435.1,184.889l2.515-2.1Z" transform="translate(-435.1 -182.789)" fill="#efa200"/>
              </g>
              <g id="Group_30639" data-name="Group 30639">
                <path id="Path_17009" data-name="Path 17009" d="M440.464,190.609a17.693,17.693,0,0,0,20.2,6.857c7.583-8.8,4.45-24.429,2.127-32.411-.029-.072-.032-.133-.061-.205a14.765,14.765,0,0,0-2.724-4.5l-26.619,7.456C434.441,178.88,437.146,186.04,440.464,190.609Z" transform="translate(-433.391 -160.355)" fill="#fff"/>
                <path id="Path_17010" data-name="Path 17010" d="M450.035,184.049l-.955,12.888-12.411-7.588V175.3Z" transform="translate(-431.416 -151.352)" fill="#fff"/>
              </g>
            </g>
            <path id="Path_17011" data-name="Path 17011" d="M490.493,264.339c.1-.447,2.12-3.335,1.732-4.341a4.252,4.252,0,0,0-1.687-1.734,14.893,14.893,0,0,0,3.128.7,3.879,3.879,0,0,0,.494-2.434c-.207-.534-12.743-4.285-12.743-4.285s4.077.337,4.251-.274.423-2.614-.069-2.832-7.99-2.372-9.49-2.2a25.052,25.052,0,0,0-5,1.856l-1.779.2-33.106-21.478,1.854-11.6-17.421-1.413s-2.048,18.77-.567,20.82,45.75,21.98,45.75,21.98,10.985,6.179,12.416,6.718S490.394,264.786,490.493,264.339Z" transform="translate(-417.901 -127.735)" fill="#fff"/>
            <path id="Path_17012" data-name="Path 17012" d="M433.218,186.641s-6.493,7.117-7.788,10.87-6.476,27.93-6.908,33.544l31.949,2.59s.864-21.708.864-24.238S433.218,186.641,433.218,186.641Z" transform="translate(-418.521 -144.518)" fill="#ffc32e"/>
            <path id="Path_17013" data-name="Path 17013" d="M451.255,184.586s3.311.72,3.958,1.583,14.679,28.925,16.19,39.648L458.378,227.9,456.22,201.5l-4.965-12.737Z" transform="translate(-398.798 -145.756)" fill="#ffc32e"/>
          </g>
          <g id="Group_30642" data-name="Group 30642" transform="translate(13.34)">
            <path id="Path_17014" data-name="Path 17014" d="M468.361,173.455c-4.029-1.32-7.966-3.715-10.168-7.34-2.247,8.921-15.69,21.674-15.91,21.89a22.484,22.484,0,0,1-.228,11.647,114.254,114.254,0,0,1-14.075-1.961,42.546,42.546,0,0,1,.458-21.337,28.566,28.566,0,0,1,12.416-16.344c6.04-3.545,13.8-4.3,20.158-1.369,6.761,3.12,11.278,10.012,12.876,17.285s.588,14.9-1.386,22.076l-6.208-.758s3.106-8.961,3.106-13.35A45.2,45.2,0,0,0,468.361,173.455Z" transform="translate(-426.845 -156.831)" fill="#00415c"/>
            <path id="Path_17015" data-name="Path 17015" d="M439.183,173.859a4.057,4.057,0,0,0-3.7-1.054,3.233,3.233,0,0,0-1.894,3.375,6.829,6.829,0,0,0,1.828,3.676,7.069,7.069,0,0,0,2.761,2.131,3.115,3.115,0,0,0,4.384-2.731C442.651,177.284,440.6,175.007,439.183,173.859Z" transform="translate(-422.79 -147.292)" fill="#fff"/>
          </g>
        </g>
        <g id="Group_30644" data-name="Group 30644" transform="translate(198.581 159.918)">
          <rect id="Rectangle_2782" data-name="Rectangle 2782" width="4.667" height="9.79" transform="translate(0 14.486)" fill="#b3c5cd"/>
          <rect id="Rectangle_2783" data-name="Rectangle 2783" width="4.667" height="14.451" transform="translate(8.721 9.819)" fill="#b3c5cd"/>
          <rect id="Rectangle_2784" data-name="Rectangle 2784" width="4.667" height="18.626" transform="translate(17.442 5.639)" fill="#b3c5cd"/>
          <rect id="Rectangle_2785" data-name="Rectangle 2785" width="4.667" height="24.259" transform="translate(26.163)" fill="#b3c5cd"/>
        </g>
      </g>
    </g>
    <g id="Group_30661" data-name="Group 30661" transform="translate(622.31 236.751)">
      <ellipse id="Ellipse_835" data-name="Ellipse 835" cx="115.775" cy="13.136" rx="115.775" ry="13.136" transform="translate(0 157.483)" opacity="0.5" fill="url(#linear-gradient)" style="mix-blend-mode: multiply;isolation: isolate"/>
      <g id="Group_30660" data-name="Group 30660" transform="translate(25.158)">
        <g id="Group_30659" data-name="Group 30659">
          <path id="Path_17016" data-name="Path 17016" d="M616.779,203.246s-4.612,2.578-4.583,5.09,2.388,10.847,2.388,10.847l6.846-9.976Z" transform="translate(-481.487 -193.881)" fill="#00415c"/>
          <g id="Group_30649" data-name="Group 30649" transform="translate(0 151.119)">
            <g id="Group_30647" data-name="Group 30647">
              <path id="Path_17017" data-name="Path 17017" d="M568.466,311.168l-25.324,10.153L530.631,291.7l18.413,15.1,14.168-6.027Z" transform="translate(-530.631 -291.704)" fill="#fff"/>
              <path id="Path_17018" data-name="Path 17018" d="M551.654,317.909l-2.611-11.11-18.413-15.1,12.512,29.617Z" transform="translate(-530.631 -291.704)" fill="#003548"/>
            </g>
            <g id="Group_30648" data-name="Group 30648" transform="translate(12.752 8.108)">
              <path id="Path_17019" data-name="Path 17019" d="M544.067,299.376q-1.183,2.423-2.367,4.844c-.5,1.032-2.024.095-1.522-.933l2.367-4.844C543.048,297.411,544.568,298.349,544.067,299.376Z" transform="translate(-537.691 -296.021)" fill="#ff582a"/>
              <path id="Path_17020" data-name="Path 17020" d="M542.919,297.843a59.157,59.157,0,0,1-2.683,5.315c-.571,1-2.095.066-1.522-.933a54.6,54.6,0,0,0,2.494-4.892C541.669,296.3,543.387,296.793,542.919,297.843Z" transform="translate(-538.588 -296.763)" fill="#ff582a"/>
            </g>
          </g>
          <path id="Path_17021" data-name="Path 17021" d="M666.31,285.9s-58.942-11.541-66.507-8.508c-6.006,2.41-51.54,31.768-51.54,31.768l7.2,13.565s48.077-16.8,54.849-21.732c0,0,60.985,6.412,71.869-7.892Z" transform="translate(-520.007 -149.515)" fill="#003548"/>
          <g id="Group_30655" data-name="Group 30655" transform="translate(78.61 13.302)">
            <path id="Path_17022" data-name="Path 17022" d="M616.1,232.712s-9.565,5.147-10.325,6.665-6.452,26.443-6.452,26.443H619.95l-2.277-28.72Z" transform="translate(-567.851 -189.43)" fill="#ff582a"/>
            <g id="Group_30652" data-name="Group 30652" transform="translate(52.698)">
              <g id="Group_30651" data-name="Group 30651">
                <g id="Group_30650" data-name="Group 30650" transform="translate(5.613 22.86)">
                  <path id="Path_17023" data-name="Path 17023" d="M617.811,219.968l-1.739,16.451a15.454,15.454,0,0,0,14.075,1.487l1.737-16.453Z" transform="translate(-616.072 -219.968)" fill="#fff"/>
                </g>
                <path id="Path_17024" data-name="Path 17024" d="M616.971,205.7s-9.192,20.414-1.008,30.847c0,0,19.113,8.21,23.578-23.4Z" transform="translate(-612.57 -205.703)" fill="#fff"/>
                <path id="Path_17025" data-name="Path 17025" d="M628.53,216.191s3.064-3.99,4.907-2.114-2.078,10.588-7.186,10.048Z" transform="translate(-604.326 -200.96)" fill="#fff"/>
              </g>
            </g>
            <path id="Path_17026" data-name="Path 17026" d="M607.639,295.865l6.277-58.951,6.992-2.641,1.282-5.5c3.037,0,20.751-3.038,20.751-3.038l2.909,7.636c6.184.817,15.813,2.373,17.841,4.343L659.7,293.84c1.16,3.9,3.434,11.655,3.993,14.266.76,3.543-5.62,8.6-5.62,8.6s-38.329.144-50.854-2.391a7.705,7.705,0,0,1-4.131-4.947C602.258,306.617,605.692,299.545,607.639,295.865Z" transform="translate(-565.663 -193.632)" fill="#ff582a"/>
            <path id="Path_17027" data-name="Path 17027" d="M608.96,254.388a12.6,12.6,0,0,1-1.978-7.237c.031-.974,1.55-.979,1.518,0a11.106,11.106,0,0,0,1.157,5.332,127.352,127.352,0,0,1,2.816-14.7.76.76,0,0,1,1.465.4,125.169,125.169,0,0,0-3.6,22.251c-.069.969-1.586.976-1.518,0q.2-2.882.534-5.743A.713.713,0,0,1,608.96,254.388Z" transform="translate(-563.242 -186.703)" fill="#ae1e0b"/>
            <path id="Path_17028" data-name="Path 17028" d="M615.773,235.4c.875.191,1.748.33,2.619.439V230.93a.76.76,0,0,1,1.519,0v4.934a.75.75,0,0,1-.026.128,28.046,28.046,0,0,0,8.522-.663q-.288-2.106-.577-4.213c-.131-.955,1.332-1.368,1.463-.4q.288,2.11.579,4.221c.8-.236,1.606-.5,2.4-.806q-.072-2.834-.143-5.668a.759.759,0,0,1,1.517,0q.065,2.512.127,5.021c.381-.173.768-.33,1.144-.521.87-.441,1.639.869.766,1.311-.676.343-1.364.646-2.053.936a.753.753,0,0,1-.59.247,29.949,29.949,0,0,1-17.669,1.415C614.416,236.66,614.82,235.2,615.773,235.4Z" transform="translate(-558.513 -192.433)" fill="#ae1e0b"/>
            <path id="Path_17029" data-name="Path 17029" d="M654.026,233.213s6.073,4.471,7.844,9.279,1.013,24.292,0,34.161c0,0,3.391,11.387,1.063,17.967s-38.893,11.964-38.893,11.964L619,283.232l29.408-2.784Z" transform="translate(-555.999 -189.128)" fill="#ff582a"/>
            <g id="Group_30654" data-name="Group 30654" transform="translate(0 69.166)">
              <g id="Group_30653" data-name="Group 30653">
                <path id="Path_17030" data-name="Path 17030" d="M584.242,288.018h56.226l-4.558-39.154H579.685Z" transform="translate(-579.685 -248.864)" fill="#0071b8"/>
                <path id="Path_17031" data-name="Path 17031" d="M603.556,263.649a3.012,3.012,0,0,1-2.368-4.892,4.712,4.712,0,1,0,3.442,4.686A3,3,0,0,1,603.556,263.649Z" transform="translate(-570.336 -243.02)" fill="#fff"/>
              </g>
              <path id="Path_17032" data-name="Path 17032" d="M621.292,259.8s3.524,1.338,4.432,2.851A10.27,10.27,0,0,1,626.9,265.3l3.822.9.348,10.059s-7.008,1.413-8.029,1.716-8.854-1.59-9.27-1.779-6.394-8.248-6.432-8.929a28.952,28.952,0,0,1,1.4-4.389s4.54-.643,4.918-.417,8.224,2.381,8.224,2.381Z" transform="translate(-563.026 -242.275)" fill="#fff"/>
            </g>
            <path id="Path_17033" data-name="Path 17033" d="M622.112,274.3a.757.757,0,0,1,.718-.883,63.655,63.655,0,0,1,19.318,2.157c-.516-1.194-1.035-2.386-1.54-3.585-.333-.79-.715-1.8-.093-2.562a1.582,1.582,0,0,1,1.8-.425,69.741,69.741,0,0,1,3.288-28.182c.306-.923,1.772-.527,1.463.4a68.746,68.746,0,0,0-3.183,28.467c1.2.575,2.388,1.175,3.582,1.756.877.43.109,1.739-.768,1.311q-1.231-.6-2.463-1.2c-.41-.2-2.138-1.364-2.519-.949-.165.178.889,2.205,1.013,2.494l1.075,2.5a.757.757,0,0,1,.045.444c.843.252,1.683.514,2.521.8.918.316.522,1.784-.4,1.465a62.54,62.54,0,0,0-22.419-3.389,49.145,49.145,0,0,0,.346,18.531,50,50,0,0,0,24.228,1.2c.955-.187,1.364,1.276.4,1.463a51.7,51.7,0,0,1-25.328-1.279.642.642,0,0,1-.683-.535A51.311,51.311,0,0,1,622.112,274.3Z" transform="translate(-554.601 -184.863)" fill="#ae1e0b"/>
          </g>
          <g id="Group_30658" data-name="Group 30658" transform="translate(19.428 175.086)">
            <g id="Group_30656" data-name="Group 30656">
              <path id="Path_17034" data-name="Path 17034" d="M585.159,314.253l-19.51,19.072-22.895-22.574,22.788,6.9,10.782-10.99Z" transform="translate(-542.754 -306.66)" fill="#fff"/>
              <path id="Path_17035" data-name="Path 17035" d="M572.206,325.376l-6.664-9.265-22.788-6.9,22.895,22.574Z" transform="translate(-542.754 -305.121)" fill="#003548"/>
            </g>
            <g id="Group_30657" data-name="Group 30657" transform="translate(17.082 5.272)">
              <path id="Path_17036" data-name="Path 17036" d="M557.307,311.633q-.166,2.69-.332,5.381c-.071,1.146-1.833.862-1.763-.279l.33-5.381C555.613,310.208,557.378,310.492,557.307,311.633Z" transform="translate(-552.331 -309.544)" fill="#ff582a"/>
              <path id="Path_17037" data-name="Path 17037" d="M555.63,310.719a59.358,59.358,0,0,1-.444,5.937c-.146,1.139-1.909.862-1.764-.279a54.485,54.485,0,0,0,.433-5.476C553.884,309.771,555.661,309.57,555.63,310.719Z" transform="translate(-553.414 -309.95)" fill="#ff582a"/>
            </g>
          </g>
          <path id="Path_17038" data-name="Path 17038" d="M672.688,316.22c17.374-6.964,8.466-31.135,8.466-31.135-15.123-2.33-68.374-9.931-78.282-3.272-6.529,4.388-41.329,43.095-41.329,43.095l11.128,12.339c16.012-16.091,40.233-35.335,40.233-35.335s17.7,5.549,32.589,10.657C655.466,315.991,663.885,318.277,672.688,316.22Z" transform="translate(-512.006 -148.154)" fill="#00415c"/>
          <path id="Path_17039" data-name="Path 17039" d="M641.226,226.3a17.052,17.052,0,0,0,2.836-10.522c-.378-3.681-2.641-7.285-6.1-8.593a31.607,31.607,0,0,0-5.405-1.056,7,7,0,0,1-4.7-2.6c-1.014-1.535-.663-4.024,1.046-4.7a12.742,12.742,0,0,0-7.261,3.328l1.048-4.756a10.175,10.175,0,1,0,3.966,19.954,10.592,10.592,0,0,1,4.5.1,5.124,5.124,0,0,1,3.425,2.465c.992,1.915.313,4.232-.383,6.274A6.414,6.414,0,0,1,641.226,226.3Z" transform="translate(-480.215 -197.402)" fill="#00415c"/>
        </g>
      </g>
    </g>
  </g>
</svg>
